<mxfile host="app.diagrams.net" modified="2023-08-20T19:05:33.201Z" agent="Mozilla/5.0 (Windows NT 10.0; Win64; x64) AppleWebKit/537.36 (KHTML, like Gecko) Chrome/116.0.0.0 Safari/537.36" etag="9CF5GfVINiE0IkRy23gr" version="21.6.8" type="device" pages="2">
  <diagram name="erd_playstation_system" id="8Bzh8aSCuIVOCjEpPQtI">
    <mxGraphModel dx="2117" dy="1735" grid="1" gridSize="10" guides="1" tooltips="1" connect="1" arrows="1" fold="1" page="1" pageScale="1" pageWidth="827" pageHeight="1169" math="0" shadow="0">
      <root>
        <mxCell id="0" />
        <mxCell id="1" parent="0" />
        <mxCell id="ZoZSnqBtWPtHvVVjJ5M5-7" style="edgeStyle=orthogonalEdgeStyle;rounded=1;sketch=1;hachureGap=4;jiggle=2;curveFitting=1;orthogonalLoop=1;jettySize=auto;html=1;exitX=0.5;exitY=0;exitDx=0;exitDy=0;entryX=0.453;entryY=0.992;entryDx=0;entryDy=0;entryPerimeter=0;fontFamily=Architects Daughter;fontSource=https%3A%2F%2Ffonts.googleapis.com%2Fcss%3Ffamily%3DArchitects%2BDaughter;fontSize=16;labelBackgroundColor=none;strokeColor=#A8201A;fontColor=default;endArrow=none;endFill=0;" parent="1" source="ZoZSnqBtWPtHvVVjJ5M5-1" target="ZoZSnqBtWPtHvVVjJ5M5-6" edge="1">
          <mxGeometry relative="1" as="geometry" />
        </mxCell>
        <mxCell id="ZoZSnqBtWPtHvVVjJ5M5-8" style="edgeStyle=orthogonalEdgeStyle;rounded=1;sketch=1;hachureGap=4;jiggle=2;curveFitting=1;orthogonalLoop=1;jettySize=auto;html=1;exitX=0.75;exitY=0;exitDx=0;exitDy=0;entryX=0;entryY=0.5;entryDx=0;entryDy=0;fontFamily=Architects Daughter;fontSource=https%3A%2F%2Ffonts.googleapis.com%2Fcss%3Ffamily%3DArchitects%2BDaughter;fontSize=16;endArrow=none;endFill=0;labelBackgroundColor=none;strokeColor=#A8201A;fontColor=default;" parent="1" source="ZoZSnqBtWPtHvVVjJ5M5-1" target="ZoZSnqBtWPtHvVVjJ5M5-5" edge="1">
          <mxGeometry relative="1" as="geometry" />
        </mxCell>
        <mxCell id="ZoZSnqBtWPtHvVVjJ5M5-9" style="edgeStyle=orthogonalEdgeStyle;rounded=1;sketch=1;hachureGap=4;jiggle=2;curveFitting=1;orthogonalLoop=1;jettySize=auto;html=1;exitX=1;exitY=0;exitDx=0;exitDy=0;entryX=0;entryY=0.5;entryDx=0;entryDy=0;fontFamily=Architects Daughter;fontSource=https%3A%2F%2Ffonts.googleapis.com%2Fcss%3Ffamily%3DArchitects%2BDaughter;fontSize=16;endArrow=none;endFill=0;labelBackgroundColor=none;strokeColor=#A8201A;fontColor=default;" parent="1" source="ZoZSnqBtWPtHvVVjJ5M5-1" target="ZoZSnqBtWPtHvVVjJ5M5-4" edge="1">
          <mxGeometry relative="1" as="geometry" />
        </mxCell>
        <mxCell id="ZoZSnqBtWPtHvVVjJ5M5-10" style="edgeStyle=orthogonalEdgeStyle;rounded=1;sketch=1;hachureGap=4;jiggle=2;curveFitting=1;orthogonalLoop=1;jettySize=auto;html=1;exitX=1;exitY=0.75;exitDx=0;exitDy=0;entryX=0;entryY=0.5;entryDx=0;entryDy=0;fontFamily=Architects Daughter;fontSource=https%3A%2F%2Ffonts.googleapis.com%2Fcss%3Ffamily%3DArchitects%2BDaughter;fontSize=16;endArrow=none;endFill=0;labelBackgroundColor=none;strokeColor=#A8201A;fontColor=default;" parent="1" source="ZoZSnqBtWPtHvVVjJ5M5-1" target="ZoZSnqBtWPtHvVVjJ5M5-3" edge="1">
          <mxGeometry relative="1" as="geometry" />
        </mxCell>
        <mxCell id="ZoZSnqBtWPtHvVVjJ5M5-11" style="edgeStyle=orthogonalEdgeStyle;rounded=1;sketch=1;hachureGap=4;jiggle=2;curveFitting=1;orthogonalLoop=1;jettySize=auto;html=1;exitX=1;exitY=1;exitDx=0;exitDy=0;fontFamily=Architects Daughter;fontSource=https%3A%2F%2Ffonts.googleapis.com%2Fcss%3Ffamily%3DArchitects%2BDaughter;fontSize=16;endArrow=none;endFill=0;labelBackgroundColor=none;strokeColor=#A8201A;fontColor=default;" parent="1" source="ZoZSnqBtWPtHvVVjJ5M5-1" target="ZoZSnqBtWPtHvVVjJ5M5-2" edge="1">
          <mxGeometry relative="1" as="geometry" />
        </mxCell>
        <mxCell id="ZoZSnqBtWPtHvVVjJ5M5-81" style="edgeStyle=orthogonalEdgeStyle;rounded=1;sketch=1;hachureGap=4;jiggle=2;curveFitting=1;orthogonalLoop=1;jettySize=auto;html=1;exitX=0.25;exitY=0;exitDx=0;exitDy=0;strokeColor=#A8201A;fontFamily=Architects Daughter;fontSource=https%3A%2F%2Ffonts.googleapis.com%2Fcss%3Ffamily%3DArchitects%2BDaughter;fontSize=16;fontColor=#143642;fillColor=#FAE5C7;endArrow=none;endFill=0;" parent="1" source="ZoZSnqBtWPtHvVVjJ5M5-1" target="ZoZSnqBtWPtHvVVjJ5M5-80" edge="1">
          <mxGeometry relative="1" as="geometry" />
        </mxCell>
        <mxCell id="ZoZSnqBtWPtHvVVjJ5M5-85" style="edgeStyle=orthogonalEdgeStyle;rounded=1;sketch=1;hachureGap=4;jiggle=2;curveFitting=1;orthogonalLoop=1;jettySize=auto;html=1;exitX=0;exitY=0.5;exitDx=0;exitDy=0;strokeColor=#A8201A;fontFamily=Architects Daughter;fontSource=https%3A%2F%2Ffonts.googleapis.com%2Fcss%3Ffamily%3DArchitects%2BDaughter;fontSize=16;fontColor=#143642;fillColor=#FAE5C7;endArrow=none;endFill=0;" parent="1" source="ZoZSnqBtWPtHvVVjJ5M5-1" target="ZoZSnqBtWPtHvVVjJ5M5-84" edge="1">
          <mxGeometry relative="1" as="geometry" />
        </mxCell>
        <mxCell id="ZoZSnqBtWPtHvVVjJ5M5-117" style="edgeStyle=orthogonalEdgeStyle;rounded=1;sketch=1;hachureGap=4;jiggle=2;curveFitting=1;orthogonalLoop=1;jettySize=auto;html=1;exitX=0.25;exitY=1;exitDx=0;exitDy=0;entryX=0;entryY=0.5;entryDx=0;entryDy=0;strokeColor=#A8201A;fontFamily=Architects Daughter;fontSource=https%3A%2F%2Ffonts.googleapis.com%2Fcss%3Ffamily%3DArchitects%2BDaughter;fontSize=16;fontColor=#143642;fillColor=#FAE5C7;endArrow=none;endFill=0;" parent="1" source="ZoZSnqBtWPtHvVVjJ5M5-1" target="ZoZSnqBtWPtHvVVjJ5M5-116" edge="1">
          <mxGeometry relative="1" as="geometry" />
        </mxCell>
        <mxCell id="FdaxyXjNPmpwnFK73rwf-2" style="edgeStyle=orthogonalEdgeStyle;rounded=1;sketch=1;hachureGap=4;jiggle=2;curveFitting=1;orthogonalLoop=1;jettySize=auto;html=1;exitX=0;exitY=0.75;exitDx=0;exitDy=0;strokeColor=#A8201A;fontFamily=Architects Daughter;fontSource=https%3A%2F%2Ffonts.googleapis.com%2Fcss%3Ffamily%3DArchitects%2BDaughter;fontSize=16;fontColor=#143642;fillColor=#FAE5C7;endArrow=none;endFill=0;" parent="1" source="ZoZSnqBtWPtHvVVjJ5M5-1" target="FdaxyXjNPmpwnFK73rwf-1" edge="1">
          <mxGeometry relative="1" as="geometry" />
        </mxCell>
        <mxCell id="ZoZSnqBtWPtHvVVjJ5M5-1" value="user" style="rounded=1;whiteSpace=wrap;html=1;sketch=1;hachureGap=4;jiggle=2;curveFitting=1;fontFamily=Architects Daughter;fontSource=https%3A%2F%2Ffonts.googleapis.com%2Fcss%3Ffamily%3DArchitects%2BDaughter;fontSize=20;labelBackgroundColor=none;fillColor=#FAE5C7;strokeColor=#0F8B8D;fontColor=#143642;" parent="1" vertex="1">
          <mxGeometry x="110" y="200" width="120" height="60" as="geometry" />
        </mxCell>
        <mxCell id="ZoZSnqBtWPtHvVVjJ5M5-2" value="&lt;font style=&quot;font-size: 12px;&quot;&gt;user_password&lt;/font&gt;" style="ellipse;whiteSpace=wrap;html=1;sketch=1;hachureGap=4;jiggle=2;curveFitting=1;fontFamily=Architects Daughter;fontSource=https%3A%2F%2Ffonts.googleapis.com%2Fcss%3Ffamily%3DArchitects%2BDaughter;fontSize=20;labelBackgroundColor=none;fillColor=#FAE5C7;strokeColor=#0F8B8D;fontColor=#143642;rounded=1;" parent="1" vertex="1">
          <mxGeometry x="150" y="340" width="120" height="80" as="geometry" />
        </mxCell>
        <mxCell id="ZoZSnqBtWPtHvVVjJ5M5-3" value="&lt;font style=&quot;font-size: 11px;&quot;&gt;user_address&lt;/font&gt;" style="ellipse;whiteSpace=wrap;html=1;sketch=1;hachureGap=4;jiggle=2;curveFitting=1;fontFamily=Architects Daughter;fontSource=https%3A%2F%2Ffonts.googleapis.com%2Fcss%3Ffamily%3DArchitects%2BDaughter;fontSize=20;labelBackgroundColor=none;fillColor=#FAE5C7;strokeColor=#0F8B8D;fontColor=#143642;rounded=1;" parent="1" vertex="1">
          <mxGeometry x="260" y="280" width="120" height="80" as="geometry" />
        </mxCell>
        <mxCell id="ZoZSnqBtWPtHvVVjJ5M5-4" value="User_email" style="ellipse;whiteSpace=wrap;html=1;sketch=1;hachureGap=4;jiggle=2;curveFitting=1;fontFamily=Architects Daughter;fontSource=https%3A%2F%2Ffonts.googleapis.com%2Fcss%3Ffamily%3DArchitects%2BDaughter;fontSize=20;labelBackgroundColor=none;fillColor=#FAE5C7;strokeColor=#0F8B8D;fontColor=#143642;rounded=1;" parent="1" vertex="1">
          <mxGeometry x="294" y="200" width="120" height="80" as="geometry" />
        </mxCell>
        <mxCell id="ZoZSnqBtWPtHvVVjJ5M5-5" value="user_name" style="ellipse;whiteSpace=wrap;html=1;sketch=1;hachureGap=4;jiggle=2;curveFitting=1;fontFamily=Architects Daughter;fontSource=https%3A%2F%2Ffonts.googleapis.com%2Fcss%3Ffamily%3DArchitects%2BDaughter;fontSize=20;labelBackgroundColor=none;fillColor=#FAE5C7;strokeColor=#0F8B8D;fontColor=#143642;rounded=1;" parent="1" vertex="1">
          <mxGeometry x="240" y="100" width="120" height="80" as="geometry" />
        </mxCell>
        <mxCell id="ZoZSnqBtWPtHvVVjJ5M5-6" value="&lt;u&gt;user_ID&lt;/u&gt;" style="ellipse;whiteSpace=wrap;html=1;sketch=1;hachureGap=4;jiggle=2;curveFitting=1;fontFamily=Architects Daughter;fontSource=https%3A%2F%2Ffonts.googleapis.com%2Fcss%3Ffamily%3DArchitects%2BDaughter;fontSize=20;labelBackgroundColor=none;fillColor=#FAE5C7;strokeColor=#0F8B8D;fontColor=#143642;rounded=1;" parent="1" vertex="1">
          <mxGeometry x="100" y="60" width="120" height="80" as="geometry" />
        </mxCell>
        <mxCell id="ZoZSnqBtWPtHvVVjJ5M5-18" style="edgeStyle=orthogonalEdgeStyle;rounded=1;sketch=1;hachureGap=4;jiggle=2;curveFitting=1;orthogonalLoop=1;jettySize=auto;html=1;exitX=0.5;exitY=0;exitDx=0;exitDy=0;strokeColor=#A8201A;fontFamily=Architects Daughter;fontSource=https%3A%2F%2Ffonts.googleapis.com%2Fcss%3Ffamily%3DArchitects%2BDaughter;fontSize=16;fontColor=#143642;fillColor=#FAE5C7;endArrow=none;endFill=0;" parent="1" source="ZoZSnqBtWPtHvVVjJ5M5-12" target="ZoZSnqBtWPtHvVVjJ5M5-13" edge="1">
          <mxGeometry relative="1" as="geometry" />
        </mxCell>
        <mxCell id="ZoZSnqBtWPtHvVVjJ5M5-19" style="edgeStyle=orthogonalEdgeStyle;rounded=1;sketch=1;hachureGap=4;jiggle=2;curveFitting=1;orthogonalLoop=1;jettySize=auto;html=1;exitX=1;exitY=0.25;exitDx=0;exitDy=0;entryX=0;entryY=0.5;entryDx=0;entryDy=0;strokeColor=#A8201A;fontFamily=Architects Daughter;fontSource=https%3A%2F%2Ffonts.googleapis.com%2Fcss%3Ffamily%3DArchitects%2BDaughter;fontSize=16;fontColor=#143642;fillColor=#FAE5C7;endArrow=none;endFill=0;" parent="1" source="ZoZSnqBtWPtHvVVjJ5M5-12" target="ZoZSnqBtWPtHvVVjJ5M5-14" edge="1">
          <mxGeometry relative="1" as="geometry" />
        </mxCell>
        <mxCell id="ZoZSnqBtWPtHvVVjJ5M5-20" style="edgeStyle=orthogonalEdgeStyle;rounded=1;sketch=1;hachureGap=4;jiggle=2;curveFitting=1;orthogonalLoop=1;jettySize=auto;html=1;exitX=1;exitY=0.5;exitDx=0;exitDy=0;entryX=0.5;entryY=0;entryDx=0;entryDy=0;strokeColor=#A8201A;fontFamily=Architects Daughter;fontSource=https%3A%2F%2Ffonts.googleapis.com%2Fcss%3Ffamily%3DArchitects%2BDaughter;fontSize=16;fontColor=#143642;fillColor=#FAE5C7;endArrow=none;endFill=0;" parent="1" source="ZoZSnqBtWPtHvVVjJ5M5-12" target="ZoZSnqBtWPtHvVVjJ5M5-15" edge="1">
          <mxGeometry relative="1" as="geometry" />
        </mxCell>
        <mxCell id="ZoZSnqBtWPtHvVVjJ5M5-21" style="edgeStyle=orthogonalEdgeStyle;rounded=1;sketch=1;hachureGap=4;jiggle=2;curveFitting=1;orthogonalLoop=1;jettySize=auto;html=1;exitX=0;exitY=0.5;exitDx=0;exitDy=0;strokeColor=#A8201A;fontFamily=Architects Daughter;fontSource=https%3A%2F%2Ffonts.googleapis.com%2Fcss%3Ffamily%3DArchitects%2BDaughter;fontSize=16;fontColor=#143642;fillColor=#FAE5C7;endArrow=none;endFill=0;" parent="1" source="ZoZSnqBtWPtHvVVjJ5M5-12" target="ZoZSnqBtWPtHvVVjJ5M5-16" edge="1">
          <mxGeometry relative="1" as="geometry" />
        </mxCell>
        <mxCell id="ZoZSnqBtWPtHvVVjJ5M5-24" style="edgeStyle=orthogonalEdgeStyle;rounded=1;sketch=1;hachureGap=4;jiggle=2;curveFitting=1;orthogonalLoop=1;jettySize=auto;html=1;exitX=0.25;exitY=0;exitDx=0;exitDy=0;entryX=1;entryY=0.5;entryDx=0;entryDy=0;strokeColor=#A8201A;fontFamily=Architects Daughter;fontSource=https%3A%2F%2Ffonts.googleapis.com%2Fcss%3Ffamily%3DArchitects%2BDaughter;fontSize=16;fontColor=#143642;fillColor=#FAE5C7;endArrow=none;endFill=0;" parent="1" source="ZoZSnqBtWPtHvVVjJ5M5-12" target="ZoZSnqBtWPtHvVVjJ5M5-22" edge="1">
          <mxGeometry relative="1" as="geometry" />
        </mxCell>
        <mxCell id="ZoZSnqBtWPtHvVVjJ5M5-12" value="product" style="rounded=1;whiteSpace=wrap;html=1;sketch=1;hachureGap=4;jiggle=2;curveFitting=1;strokeColor=#0F8B8D;fontFamily=Architects Daughter;fontSource=https%3A%2F%2Ffonts.googleapis.com%2Fcss%3Ffamily%3DArchitects%2BDaughter;fontSize=20;fontColor=#143642;fillColor=#FAE5C7;" parent="1" vertex="1">
          <mxGeometry x="550" y="200" width="120" height="60" as="geometry" />
        </mxCell>
        <mxCell id="ZoZSnqBtWPtHvVVjJ5M5-13" value="&lt;u&gt;product_id&lt;/u&gt;" style="ellipse;whiteSpace=wrap;html=1;sketch=1;hachureGap=4;jiggle=2;curveFitting=1;strokeColor=#0F8B8D;fontFamily=Architects Daughter;fontSource=https%3A%2F%2Ffonts.googleapis.com%2Fcss%3Ffamily%3DArchitects%2BDaughter;fontSize=20;fontColor=#143642;fillColor=#FAE5C7;rounded=1;" parent="1" vertex="1">
          <mxGeometry x="550" y="80" width="120" height="80" as="geometry" />
        </mxCell>
        <mxCell id="ZoZSnqBtWPtHvVVjJ5M5-14" value="&lt;font style=&quot;font-size: 14px;&quot;&gt;product_cost&lt;/font&gt;" style="ellipse;whiteSpace=wrap;html=1;sketch=1;hachureGap=4;jiggle=2;curveFitting=1;strokeColor=#0F8B8D;fontFamily=Architects Daughter;fontSource=https%3A%2F%2Ffonts.googleapis.com%2Fcss%3Ffamily%3DArchitects%2BDaughter;fontSize=20;fontColor=#143642;fillColor=#FAE5C7;rounded=1;" parent="1" vertex="1">
          <mxGeometry x="700" y="140" width="120" height="80" as="geometry" />
        </mxCell>
        <mxCell id="ZoZSnqBtWPtHvVVjJ5M5-15" value="&lt;font style=&quot;font-size: 14px;&quot;&gt;Product_name&lt;/font&gt;" style="ellipse;whiteSpace=wrap;html=1;sketch=1;hachureGap=4;jiggle=2;curveFitting=1;strokeColor=#0F8B8D;fontFamily=Architects Daughter;fontSource=https%3A%2F%2Ffonts.googleapis.com%2Fcss%3Ffamily%3DArchitects%2BDaughter;fontSize=20;fontColor=#143642;fillColor=#FAE5C7;rounded=1;" parent="1" vertex="1">
          <mxGeometry x="690" y="270" width="120" height="80" as="geometry" />
        </mxCell>
        <mxCell id="ZoZSnqBtWPtHvVVjJ5M5-16" value="&lt;font style=&quot;font-size: 18px;&quot;&gt;product_num&lt;/font&gt;" style="ellipse;whiteSpace=wrap;html=1;sketch=1;hachureGap=4;jiggle=2;curveFitting=1;strokeColor=#0F8B8D;fontFamily=Architects Daughter;fontSource=https%3A%2F%2Ffonts.googleapis.com%2Fcss%3Ffamily%3DArchitects%2BDaughter;fontSize=20;fontColor=#143642;fillColor=#FAE5C7;rounded=1;" parent="1" vertex="1">
          <mxGeometry x="414" y="270" width="120" height="80" as="geometry" />
        </mxCell>
        <mxCell id="ZoZSnqBtWPtHvVVjJ5M5-22" value="&lt;font style=&quot;font-size: 18px;&quot;&gt;product_dis&lt;/font&gt;" style="ellipse;whiteSpace=wrap;html=1;sketch=1;hachureGap=4;jiggle=2;curveFitting=1;strokeColor=#0F8B8D;fontFamily=Architects Daughter;fontSource=https%3A%2F%2Ffonts.googleapis.com%2Fcss%3Ffamily%3DArchitects%2BDaughter;fontSize=20;fontColor=#143642;fillColor=#FAE5C7;rounded=1;" parent="1" vertex="1">
          <mxGeometry x="420" y="120" width="120" height="80" as="geometry" />
        </mxCell>
        <mxCell id="ZoZSnqBtWPtHvVVjJ5M5-32" style="edgeStyle=orthogonalEdgeStyle;rounded=1;sketch=1;hachureGap=4;jiggle=2;curveFitting=1;orthogonalLoop=1;jettySize=auto;html=1;exitX=0.5;exitY=0;exitDx=0;exitDy=0;entryX=0.5;entryY=1;entryDx=0;entryDy=0;strokeColor=#A8201A;fontFamily=Architects Daughter;fontSource=https%3A%2F%2Ffonts.googleapis.com%2Fcss%3Ffamily%3DArchitects%2BDaughter;fontSize=16;fontColor=#143642;fillColor=#FAE5C7;endArrow=none;endFill=0;" parent="1" source="ZoZSnqBtWPtHvVVjJ5M5-25" target="ZoZSnqBtWPtHvVVjJ5M5-30" edge="1">
          <mxGeometry relative="1" as="geometry" />
        </mxCell>
        <mxCell id="ZoZSnqBtWPtHvVVjJ5M5-33" style="edgeStyle=orthogonalEdgeStyle;rounded=1;sketch=1;hachureGap=4;jiggle=2;curveFitting=1;orthogonalLoop=1;jettySize=auto;html=1;exitX=0;exitY=0.25;exitDx=0;exitDy=0;strokeColor=#A8201A;fontFamily=Architects Daughter;fontSource=https%3A%2F%2Ffonts.googleapis.com%2Fcss%3Ffamily%3DArchitects%2BDaughter;fontSize=16;fontColor=#143642;fillColor=#FAE5C7;endArrow=none;endFill=0;" parent="1" source="ZoZSnqBtWPtHvVVjJ5M5-25" target="ZoZSnqBtWPtHvVVjJ5M5-31" edge="1">
          <mxGeometry relative="1" as="geometry" />
        </mxCell>
        <mxCell id="ZoZSnqBtWPtHvVVjJ5M5-35" style="edgeStyle=orthogonalEdgeStyle;rounded=1;sketch=1;hachureGap=4;jiggle=2;curveFitting=1;orthogonalLoop=1;jettySize=auto;html=1;exitX=0.5;exitY=1;exitDx=0;exitDy=0;strokeColor=#A8201A;fontFamily=Architects Daughter;fontSource=https%3A%2F%2Ffonts.googleapis.com%2Fcss%3Ffamily%3DArchitects%2BDaughter;fontSize=16;fontColor=#143642;fillColor=#FAE5C7;endArrow=none;endFill=0;" parent="1" source="ZoZSnqBtWPtHvVVjJ5M5-25" target="ZoZSnqBtWPtHvVVjJ5M5-27" edge="1">
          <mxGeometry relative="1" as="geometry" />
        </mxCell>
        <mxCell id="ZoZSnqBtWPtHvVVjJ5M5-36" style="edgeStyle=orthogonalEdgeStyle;rounded=1;sketch=1;hachureGap=4;jiggle=2;curveFitting=1;orthogonalLoop=1;jettySize=auto;html=1;exitX=0.25;exitY=1;exitDx=0;exitDy=0;entryX=0.5;entryY=0;entryDx=0;entryDy=0;strokeColor=#A8201A;fontFamily=Architects Daughter;fontSource=https%3A%2F%2Ffonts.googleapis.com%2Fcss%3Ffamily%3DArchitects%2BDaughter;fontSize=16;fontColor=#143642;fillColor=#FAE5C7;endArrow=none;endFill=0;" parent="1" source="ZoZSnqBtWPtHvVVjJ5M5-25" target="ZoZSnqBtWPtHvVVjJ5M5-26" edge="1">
          <mxGeometry relative="1" as="geometry" />
        </mxCell>
        <mxCell id="ZoZSnqBtWPtHvVVjJ5M5-70" style="edgeStyle=orthogonalEdgeStyle;rounded=1;sketch=1;hachureGap=4;jiggle=2;curveFitting=1;orthogonalLoop=1;jettySize=auto;html=1;exitX=1;exitY=0.5;exitDx=0;exitDy=0;entryX=0;entryY=0.5;entryDx=0;entryDy=0;strokeColor=#A8201A;fontFamily=Architects Daughter;fontSource=https%3A%2F%2Ffonts.googleapis.com%2Fcss%3Ffamily%3DArchitects%2BDaughter;fontSize=16;fontColor=#143642;fillColor=#FAE5C7;endArrow=none;endFill=0;" parent="1" source="ZoZSnqBtWPtHvVVjJ5M5-25" target="ZoZSnqBtWPtHvVVjJ5M5-69" edge="1">
          <mxGeometry relative="1" as="geometry" />
        </mxCell>
        <mxCell id="ZoZSnqBtWPtHvVVjJ5M5-25" value="room" style="rounded=1;whiteSpace=wrap;html=1;sketch=1;hachureGap=4;jiggle=2;curveFitting=1;strokeColor=#0F8B8D;fontFamily=Architects Daughter;fontSource=https%3A%2F%2Ffonts.googleapis.com%2Fcss%3Ffamily%3DArchitects%2BDaughter;fontSize=20;fontColor=#143642;fillColor=#FAE5C7;" parent="1" vertex="1">
          <mxGeometry x="-2" y="649" width="120" height="60" as="geometry" />
        </mxCell>
        <mxCell id="ZoZSnqBtWPtHvVVjJ5M5-26" value="&lt;font style=&quot;font-size: 20px;&quot;&gt;&lt;u style=&quot;&quot;&gt;room_id&lt;/u&gt;&lt;/font&gt;" style="ellipse;whiteSpace=wrap;html=1;sketch=1;hachureGap=4;jiggle=2;curveFitting=1;strokeColor=#0F8B8D;fontFamily=Architects Daughter;fontSource=https%3A%2F%2Ffonts.googleapis.com%2Fcss%3Ffamily%3DArchitects%2BDaughter;fontSize=20;fontColor=#143642;fillColor=#FAE5C7;rounded=1;" parent="1" vertex="1">
          <mxGeometry x="-130" y="740" width="120" height="80" as="geometry" />
        </mxCell>
        <mxCell id="ZoZSnqBtWPtHvVVjJ5M5-27" value="&lt;font style=&quot;font-size: 18px;&quot;&gt;room_number&lt;/font&gt;" style="ellipse;whiteSpace=wrap;html=1;sketch=1;hachureGap=4;jiggle=2;curveFitting=1;strokeColor=#0F8B8D;fontFamily=Architects Daughter;fontSource=https%3A%2F%2Ffonts.googleapis.com%2Fcss%3Ffamily%3DArchitects%2BDaughter;fontSize=20;fontColor=#143642;fillColor=#FAE5C7;rounded=1;" parent="1" vertex="1">
          <mxGeometry x="20" y="750" width="120" height="80" as="geometry" />
        </mxCell>
        <mxCell id="ZoZSnqBtWPtHvVVjJ5M5-30" value="hour_cost" style="ellipse;whiteSpace=wrap;html=1;sketch=1;hachureGap=4;jiggle=2;curveFitting=1;strokeColor=#0F8B8D;fontFamily=Architects Daughter;fontSource=https%3A%2F%2Ffonts.googleapis.com%2Fcss%3Ffamily%3DArchitects%2BDaughter;fontSize=20;fontColor=#143642;fillColor=#FAE5C7;rounded=1;" parent="1" vertex="1">
          <mxGeometry x="40" y="510" width="120" height="80" as="geometry" />
        </mxCell>
        <mxCell id="ZoZSnqBtWPtHvVVjJ5M5-31" value="type" style="ellipse;whiteSpace=wrap;html=1;sketch=1;hachureGap=4;jiggle=2;curveFitting=1;strokeColor=#0F8B8D;fontFamily=Architects Daughter;fontSource=https%3A%2F%2Ffonts.googleapis.com%2Fcss%3Ffamily%3DArchitects%2BDaughter;fontSize=20;fontColor=#143642;fillColor=#FAE5C7;rounded=1;" parent="1" vertex="1">
          <mxGeometry x="-170" y="624" width="120" height="80" as="geometry" />
        </mxCell>
        <mxCell id="ZoZSnqBtWPtHvVVjJ5M5-48" style="edgeStyle=orthogonalEdgeStyle;rounded=1;sketch=1;hachureGap=4;jiggle=2;curveFitting=1;orthogonalLoop=1;jettySize=auto;html=1;exitX=0.25;exitY=0;exitDx=0;exitDy=0;strokeColor=#A8201A;fontFamily=Architects Daughter;fontSource=https%3A%2F%2Ffonts.googleapis.com%2Fcss%3Ffamily%3DArchitects%2BDaughter;fontSize=16;fontColor=#143642;fillColor=#FAE5C7;endArrow=none;endFill=0;" parent="1" source="ZoZSnqBtWPtHvVVjJ5M5-38" target="ZoZSnqBtWPtHvVVjJ5M5-39" edge="1">
          <mxGeometry relative="1" as="geometry" />
        </mxCell>
        <mxCell id="ZoZSnqBtWPtHvVVjJ5M5-49" style="edgeStyle=orthogonalEdgeStyle;rounded=1;sketch=1;hachureGap=4;jiggle=2;curveFitting=1;orthogonalLoop=1;jettySize=auto;html=1;exitX=0.5;exitY=0;exitDx=0;exitDy=0;entryX=0.5;entryY=1;entryDx=0;entryDy=0;strokeColor=#A8201A;fontFamily=Architects Daughter;fontSource=https%3A%2F%2Ffonts.googleapis.com%2Fcss%3Ffamily%3DArchitects%2BDaughter;fontSize=16;fontColor=#143642;fillColor=#FAE5C7;endArrow=none;endFill=0;" parent="1" source="ZoZSnqBtWPtHvVVjJ5M5-38" target="ZoZSnqBtWPtHvVVjJ5M5-40" edge="1">
          <mxGeometry relative="1" as="geometry" />
        </mxCell>
        <mxCell id="ZoZSnqBtWPtHvVVjJ5M5-50" style="edgeStyle=orthogonalEdgeStyle;rounded=1;sketch=1;hachureGap=4;jiggle=2;curveFitting=1;orthogonalLoop=1;jettySize=auto;html=1;exitX=0.75;exitY=0;exitDx=0;exitDy=0;strokeColor=#A8201A;fontFamily=Architects Daughter;fontSource=https%3A%2F%2Ffonts.googleapis.com%2Fcss%3Ffamily%3DArchitects%2BDaughter;fontSize=16;fontColor=#143642;fillColor=#FAE5C7;endArrow=none;endFill=0;" parent="1" source="ZoZSnqBtWPtHvVVjJ5M5-38" target="ZoZSnqBtWPtHvVVjJ5M5-41" edge="1">
          <mxGeometry relative="1" as="geometry" />
        </mxCell>
        <mxCell id="ZoZSnqBtWPtHvVVjJ5M5-51" style="edgeStyle=orthogonalEdgeStyle;rounded=1;sketch=1;hachureGap=4;jiggle=2;curveFitting=1;orthogonalLoop=1;jettySize=auto;html=1;exitX=1;exitY=0.25;exitDx=0;exitDy=0;strokeColor=#A8201A;fontFamily=Architects Daughter;fontSource=https%3A%2F%2Ffonts.googleapis.com%2Fcss%3Ffamily%3DArchitects%2BDaughter;fontSize=16;fontColor=#143642;fillColor=#FAE5C7;endArrow=none;endFill=0;" parent="1" source="ZoZSnqBtWPtHvVVjJ5M5-38" target="ZoZSnqBtWPtHvVVjJ5M5-45" edge="1">
          <mxGeometry relative="1" as="geometry" />
        </mxCell>
        <mxCell id="ZoZSnqBtWPtHvVVjJ5M5-38" value="payment" style="rounded=1;whiteSpace=wrap;html=1;sketch=1;hachureGap=4;jiggle=2;curveFitting=1;strokeColor=#0F8B8D;fontFamily=Architects Daughter;fontSource=https%3A%2F%2Ffonts.googleapis.com%2Fcss%3Ffamily%3DArchitects%2BDaughter;fontSize=20;fontColor=#143642;fillColor=#FAE5C7;" parent="1" vertex="1">
          <mxGeometry x="-390" y="150" width="120" height="60" as="geometry" />
        </mxCell>
        <mxCell id="ZoZSnqBtWPtHvVVjJ5M5-39" value="&lt;font style=&quot;font-size: 14px;&quot;&gt;Payment_purpose&lt;/font&gt;" style="ellipse;whiteSpace=wrap;html=1;sketch=1;hachureGap=4;jiggle=2;curveFitting=1;strokeColor=#0F8B8D;fontFamily=Architects Daughter;fontSource=https%3A%2F%2Ffonts.googleapis.com%2Fcss%3Ffamily%3DArchitects%2BDaughter;fontSize=20;fontColor=#143642;fillColor=#FAE5C7;rounded=1;" parent="1" vertex="1">
          <mxGeometry x="-440" y="20" width="120" height="80" as="geometry" />
        </mxCell>
        <mxCell id="ZoZSnqBtWPtHvVVjJ5M5-40" value="&lt;u&gt;payment_ID&amp;nbsp;&lt;/u&gt;" style="ellipse;whiteSpace=wrap;html=1;sketch=1;hachureGap=4;jiggle=2;curveFitting=1;strokeColor=#0F8B8D;fontFamily=Architects Daughter;fontSource=https%3A%2F%2Ffonts.googleapis.com%2Fcss%3Ffamily%3DArchitects%2BDaughter;fontSize=20;fontColor=#143642;fillColor=#FAE5C7;rounded=1;" parent="1" vertex="1">
          <mxGeometry x="-340" y="-30" width="120" height="80" as="geometry" />
        </mxCell>
        <mxCell id="ZoZSnqBtWPtHvVVjJ5M5-41" value="&lt;font style=&quot;font-size: 14px;&quot;&gt;payment_cost&lt;/font&gt;" style="ellipse;whiteSpace=wrap;html=1;sketch=1;hachureGap=4;jiggle=2;curveFitting=1;strokeColor=#0F8B8D;fontFamily=Architects Daughter;fontSource=https%3A%2F%2Ffonts.googleapis.com%2Fcss%3Ffamily%3DArchitects%2BDaughter;fontSize=20;fontColor=#143642;fillColor=#FAE5C7;rounded=1;" parent="1" vertex="1">
          <mxGeometry x="-230" y="20" width="120" height="80" as="geometry" />
        </mxCell>
        <mxCell id="ZoZSnqBtWPtHvVVjJ5M5-45" value="&lt;span style=&quot;font-size: 14px;&quot;&gt;payement_date&lt;/span&gt;" style="ellipse;whiteSpace=wrap;html=1;sketch=1;hachureGap=4;jiggle=2;curveFitting=1;strokeColor=#0F8B8D;fontFamily=Architects Daughter;fontSource=https%3A%2F%2Ffonts.googleapis.com%2Fcss%3Ffamily%3DArchitects%2BDaughter;fontSize=20;fontColor=#143642;fillColor=#FAE5C7;rounded=1;" parent="1" vertex="1">
          <mxGeometry x="-170" y="-60" width="120" height="80" as="geometry" />
        </mxCell>
        <mxCell id="ZoZSnqBtWPtHvVVjJ5M5-56" style="edgeStyle=orthogonalEdgeStyle;rounded=1;sketch=1;hachureGap=4;jiggle=2;curveFitting=1;orthogonalLoop=1;jettySize=auto;html=1;exitX=0.25;exitY=0;exitDx=0;exitDy=0;entryX=0.5;entryY=1;entryDx=0;entryDy=0;strokeColor=#A8201A;fontFamily=Architects Daughter;fontSource=https%3A%2F%2Ffonts.googleapis.com%2Fcss%3Ffamily%3DArchitects%2BDaughter;fontSize=16;fontColor=#143642;fillColor=#FAE5C7;endArrow=none;endFill=0;" parent="1" source="ZoZSnqBtWPtHvVVjJ5M5-52" target="ZoZSnqBtWPtHvVVjJ5M5-55" edge="1">
          <mxGeometry relative="1" as="geometry" />
        </mxCell>
        <mxCell id="ZoZSnqBtWPtHvVVjJ5M5-60" style="edgeStyle=orthogonalEdgeStyle;rounded=1;sketch=1;hachureGap=4;jiggle=2;curveFitting=1;orthogonalLoop=1;jettySize=auto;html=1;exitX=0.5;exitY=0;exitDx=0;exitDy=0;entryX=0.5;entryY=1;entryDx=0;entryDy=0;strokeColor=#A8201A;fontFamily=Architects Daughter;fontSource=https%3A%2F%2Ffonts.googleapis.com%2Fcss%3Ffamily%3DArchitects%2BDaughter;fontSize=16;fontColor=#143642;fillColor=#FAE5C7;endArrow=none;endFill=0;" parent="1" source="ZoZSnqBtWPtHvVVjJ5M5-52" target="ZoZSnqBtWPtHvVVjJ5M5-59" edge="1">
          <mxGeometry relative="1" as="geometry" />
        </mxCell>
        <mxCell id="ZoZSnqBtWPtHvVVjJ5M5-64" style="edgeStyle=orthogonalEdgeStyle;rounded=1;sketch=1;hachureGap=4;jiggle=2;curveFitting=1;orthogonalLoop=1;jettySize=auto;html=1;entryX=1;entryY=0.5;entryDx=0;entryDy=0;strokeColor=#A8201A;fontFamily=Architects Daughter;fontSource=https%3A%2F%2Ffonts.googleapis.com%2Fcss%3Ffamily%3DArchitects%2BDaughter;fontSize=16;fontColor=#143642;fillColor=#FAE5C7;endArrow=none;endFill=0;exitX=0.25;exitY=1;exitDx=0;exitDy=0;" parent="1" source="ZoZSnqBtWPtHvVVjJ5M5-52" target="ZoZSnqBtWPtHvVVjJ5M5-63" edge="1">
          <mxGeometry relative="1" as="geometry">
            <mxPoint x="650" y="614" as="sourcePoint" />
          </mxGeometry>
        </mxCell>
        <mxCell id="ZoZSnqBtWPtHvVVjJ5M5-111" style="edgeStyle=orthogonalEdgeStyle;rounded=1;sketch=1;hachureGap=4;jiggle=2;curveFitting=1;orthogonalLoop=1;jettySize=auto;html=1;exitX=0.75;exitY=0;exitDx=0;exitDy=0;strokeColor=#A8201A;fontFamily=Architects Daughter;fontSource=https%3A%2F%2Ffonts.googleapis.com%2Fcss%3Ffamily%3DArchitects%2BDaughter;fontSize=16;fontColor=#143642;fillColor=#FAE5C7;endArrow=none;endFill=0;" parent="1" source="ZoZSnqBtWPtHvVVjJ5M5-52" target="ZoZSnqBtWPtHvVVjJ5M5-112" edge="1">
          <mxGeometry relative="1" as="geometry">
            <mxPoint x="960" y="510" as="targetPoint" />
          </mxGeometry>
        </mxCell>
        <mxCell id="ZoZSnqBtWPtHvVVjJ5M5-114" style="edgeStyle=orthogonalEdgeStyle;rounded=1;sketch=1;hachureGap=4;jiggle=2;curveFitting=1;orthogonalLoop=1;jettySize=auto;html=1;exitX=1;exitY=0;exitDx=0;exitDy=0;strokeColor=#A8201A;fontFamily=Architects Daughter;fontSource=https%3A%2F%2Ffonts.googleapis.com%2Fcss%3Ffamily%3DArchitects%2BDaughter;fontSize=16;fontColor=#143642;fillColor=#FAE5C7;entryX=0;entryY=0.5;entryDx=0;entryDy=0;endArrow=none;endFill=0;" parent="1" source="ZoZSnqBtWPtHvVVjJ5M5-52" target="ZoZSnqBtWPtHvVVjJ5M5-115" edge="1">
          <mxGeometry relative="1" as="geometry">
            <mxPoint x="880" y="583.9999999999995" as="targetPoint" />
          </mxGeometry>
        </mxCell>
        <mxCell id="ZoZSnqBtWPtHvVVjJ5M5-52" value="datils" style="rounded=1;whiteSpace=wrap;html=1;sketch=1;hachureGap=4;jiggle=2;curveFitting=1;strokeColor=#0F8B8D;fontFamily=Architects Daughter;fontSource=https%3A%2F%2Ffonts.googleapis.com%2Fcss%3Ffamily%3DArchitects%2BDaughter;fontSize=20;fontColor=#143642;fillColor=#FAE5C7;" parent="1" vertex="1">
          <mxGeometry x="650" y="554" width="120" height="60" as="geometry" />
        </mxCell>
        <mxCell id="ZoZSnqBtWPtHvVVjJ5M5-55" value="time_start" style="ellipse;whiteSpace=wrap;html=1;sketch=1;hachureGap=4;jiggle=2;curveFitting=1;strokeColor=#0F8B8D;fontFamily=Architects Daughter;fontSource=https%3A%2F%2Ffonts.googleapis.com%2Fcss%3Ffamily%3DArchitects%2BDaughter;fontSize=20;fontColor=#143642;fillColor=#FAE5C7;rounded=1;" parent="1" vertex="1">
          <mxGeometry x="480" y="370" width="120" height="80" as="geometry" />
        </mxCell>
        <mxCell id="ZoZSnqBtWPtHvVVjJ5M5-59" value="time_end" style="ellipse;whiteSpace=wrap;html=1;sketch=1;hachureGap=4;jiggle=2;curveFitting=1;strokeColor=#0F8B8D;fontFamily=Architects Daughter;fontSource=https%3A%2F%2Ffonts.googleapis.com%2Fcss%3Ffamily%3DArchitects%2BDaughter;fontSize=20;fontColor=#143642;fillColor=#FAE5C7;rounded=1;" parent="1" vertex="1">
          <mxGeometry x="680" y="380" width="120" height="80" as="geometry" />
        </mxCell>
        <mxCell id="ZoZSnqBtWPtHvVVjJ5M5-63" value="&lt;u&gt;dat_id&lt;/u&gt;" style="ellipse;whiteSpace=wrap;html=1;sketch=1;hachureGap=4;jiggle=2;curveFitting=1;strokeColor=#0F8B8D;fontFamily=Architects Daughter;fontSource=https%3A%2F%2Ffonts.googleapis.com%2Fcss%3Ffamily%3DArchitects%2BDaughter;fontSize=20;fontColor=#143642;fillColor=#FAE5C7;rounded=1;" parent="1" vertex="1">
          <mxGeometry x="500" y="649" width="120" height="61" as="geometry" />
        </mxCell>
        <mxCell id="ZoZSnqBtWPtHvVVjJ5M5-71" style="edgeStyle=orthogonalEdgeStyle;rounded=1;sketch=1;hachureGap=4;jiggle=2;curveFitting=1;orthogonalLoop=1;jettySize=auto;html=1;exitX=1;exitY=0.5;exitDx=0;exitDy=0;strokeColor=#A8201A;fontFamily=Architects Daughter;fontSource=https%3A%2F%2Ffonts.googleapis.com%2Fcss%3Ffamily%3DArchitects%2BDaughter;fontSize=16;fontColor=#143642;fillColor=#FAE5C7;entryX=0;entryY=0.75;entryDx=0;entryDy=0;endArrow=none;endFill=0;" parent="1" source="ZoZSnqBtWPtHvVVjJ5M5-69" target="ZoZSnqBtWPtHvVVjJ5M5-52" edge="1">
          <mxGeometry relative="1" as="geometry" />
        </mxCell>
        <mxCell id="ZoZSnqBtWPtHvVVjJ5M5-69" value="has" style="rhombus;whiteSpace=wrap;html=1;rounded=1;sketch=1;hachureGap=4;jiggle=2;curveFitting=1;strokeColor=#0F8B8D;fontFamily=Architects Daughter;fontSource=https%3A%2F%2Ffonts.googleapis.com%2Fcss%3Ffamily%3DArchitects%2BDaughter;fontSize=20;fontColor=#143642;fillColor=#FAE5C7;" parent="1" vertex="1">
          <mxGeometry x="400" y="560" width="80" height="80" as="geometry" />
        </mxCell>
        <mxCell id="ZoZSnqBtWPtHvVVjJ5M5-76" style="edgeStyle=orthogonalEdgeStyle;rounded=1;sketch=1;hachureGap=4;jiggle=2;curveFitting=1;orthogonalLoop=1;jettySize=auto;html=1;exitX=0.5;exitY=0;exitDx=0;exitDy=0;strokeColor=#A8201A;fontFamily=Architects Daughter;fontSource=https%3A%2F%2Ffonts.googleapis.com%2Fcss%3Ffamily%3DArchitects%2BDaughter;fontSize=16;fontColor=#143642;fillColor=#FAE5C7;endArrow=none;endFill=0;" parent="1" source="ZoZSnqBtWPtHvVVjJ5M5-75" target="ZoZSnqBtWPtHvVVjJ5M5-12" edge="1">
          <mxGeometry relative="1" as="geometry" />
        </mxCell>
        <mxCell id="ZoZSnqBtWPtHvVVjJ5M5-77" style="edgeStyle=orthogonalEdgeStyle;rounded=1;sketch=1;hachureGap=4;jiggle=2;curveFitting=1;orthogonalLoop=1;jettySize=auto;html=1;exitX=0.5;exitY=1;exitDx=0;exitDy=0;strokeColor=#A8201A;fontFamily=Architects Daughter;fontSource=https%3A%2F%2Ffonts.googleapis.com%2Fcss%3Ffamily%3DArchitects%2BDaughter;fontSize=16;fontColor=#143642;fillColor=#FAE5C7;endArrow=none;endFill=0;entryX=0.383;entryY=-0.001;entryDx=0;entryDy=0;entryPerimeter=0;" parent="1" source="ZoZSnqBtWPtHvVVjJ5M5-75" target="ZoZSnqBtWPtHvVVjJ5M5-52" edge="1">
          <mxGeometry relative="1" as="geometry" />
        </mxCell>
        <mxCell id="ZoZSnqBtWPtHvVVjJ5M5-75" value="has" style="rhombus;whiteSpace=wrap;html=1;rounded=1;sketch=1;hachureGap=4;jiggle=2;curveFitting=1;strokeColor=#0F8B8D;fontFamily=Architects Daughter;fontSource=https%3A%2F%2Ffonts.googleapis.com%2Fcss%3Ffamily%3DArchitects%2BDaughter;fontSize=20;fontColor=#143642;fillColor=#FAE5C7;" parent="1" vertex="1">
          <mxGeometry x="570" y="304" width="80" height="80" as="geometry" />
        </mxCell>
        <mxCell id="ZoZSnqBtWPtHvVVjJ5M5-80" value="permeation" style="ellipse;whiteSpace=wrap;html=1;sketch=1;hachureGap=4;jiggle=2;curveFitting=1;fontFamily=Architects Daughter;fontSource=https%3A%2F%2Ffonts.googleapis.com%2Fcss%3Ffamily%3DArchitects%2BDaughter;fontSize=20;labelBackgroundColor=none;fillColor=#FAE5C7;strokeColor=#0F8B8D;fontColor=#143642;rounded=1;" parent="1" vertex="1">
          <mxGeometry x="-30" y="90" width="120" height="80" as="geometry" />
        </mxCell>
        <mxCell id="ZoZSnqBtWPtHvVVjJ5M5-86" style="edgeStyle=orthogonalEdgeStyle;rounded=1;sketch=1;hachureGap=4;jiggle=2;curveFitting=1;orthogonalLoop=1;jettySize=auto;html=1;exitX=0;exitY=0.5;exitDx=0;exitDy=0;entryX=0.5;entryY=1;entryDx=0;entryDy=0;strokeColor=#A8201A;fontFamily=Architects Daughter;fontSource=https%3A%2F%2Ffonts.googleapis.com%2Fcss%3Ffamily%3DArchitects%2BDaughter;fontSize=16;fontColor=#143642;fillColor=#FAE5C7;endArrow=none;endFill=0;" parent="1" source="ZoZSnqBtWPtHvVVjJ5M5-84" target="ZoZSnqBtWPtHvVVjJ5M5-38" edge="1">
          <mxGeometry relative="1" as="geometry" />
        </mxCell>
        <mxCell id="ZoZSnqBtWPtHvVVjJ5M5-84" value="do" style="rhombus;whiteSpace=wrap;html=1;rounded=1;sketch=1;hachureGap=4;jiggle=2;curveFitting=1;strokeColor=#0F8B8D;fontFamily=Architects Daughter;fontSource=https%3A%2F%2Ffonts.googleapis.com%2Fcss%3Ffamily%3DArchitects%2BDaughter;fontSize=20;fontColor=#143642;fillColor=#FAE5C7;" parent="1" vertex="1">
          <mxGeometry x="-120" y="190" width="80" height="80" as="geometry" />
        </mxCell>
        <mxCell id="ZoZSnqBtWPtHvVVjJ5M5-89" style="edgeStyle=orthogonalEdgeStyle;rounded=1;sketch=1;hachureGap=4;jiggle=2;curveFitting=1;orthogonalLoop=1;jettySize=auto;html=1;exitX=0.25;exitY=1;exitDx=0;exitDy=0;strokeColor=#A8201A;fontFamily=Architects Daughter;fontSource=https%3A%2F%2Ffonts.googleapis.com%2Fcss%3Ffamily%3DArchitects%2BDaughter;fontSize=16;fontColor=#143642;fillColor=#FAE5C7;endArrow=none;endFill=0;" parent="1" source="ZoZSnqBtWPtHvVVjJ5M5-87" target="ZoZSnqBtWPtHvVVjJ5M5-88" edge="1">
          <mxGeometry relative="1" as="geometry" />
        </mxCell>
        <mxCell id="ZoZSnqBtWPtHvVVjJ5M5-92" style="edgeStyle=orthogonalEdgeStyle;rounded=1;sketch=1;hachureGap=4;jiggle=2;curveFitting=1;orthogonalLoop=1;jettySize=auto;html=1;exitX=0.5;exitY=1;exitDx=0;exitDy=0;strokeColor=#A8201A;fontFamily=Architects Daughter;fontSource=https%3A%2F%2Ffonts.googleapis.com%2Fcss%3Ffamily%3DArchitects%2BDaughter;fontSize=16;fontColor=#143642;fillColor=#FAE5C7;endArrow=none;endFill=0;" parent="1" source="ZoZSnqBtWPtHvVVjJ5M5-87" target="ZoZSnqBtWPtHvVVjJ5M5-90" edge="1">
          <mxGeometry relative="1" as="geometry" />
        </mxCell>
        <mxCell id="ZoZSnqBtWPtHvVVjJ5M5-98" style="edgeStyle=orthogonalEdgeStyle;rounded=1;sketch=1;hachureGap=4;jiggle=2;curveFitting=1;orthogonalLoop=1;jettySize=auto;html=1;exitX=0.75;exitY=1;exitDx=0;exitDy=0;strokeColor=#A8201A;fontFamily=Architects Daughter;fontSource=https%3A%2F%2Ffonts.googleapis.com%2Fcss%3Ffamily%3DArchitects%2BDaughter;fontSize=16;fontColor=#143642;fillColor=#FAE5C7;endArrow=none;endFill=0;" parent="1" source="ZoZSnqBtWPtHvVVjJ5M5-87" target="ZoZSnqBtWPtHvVVjJ5M5-95" edge="1">
          <mxGeometry relative="1" as="geometry" />
        </mxCell>
        <mxCell id="ZoZSnqBtWPtHvVVjJ5M5-100" style="edgeStyle=orthogonalEdgeStyle;rounded=1;sketch=1;hachureGap=4;jiggle=2;curveFitting=1;orthogonalLoop=1;jettySize=auto;html=1;exitX=1;exitY=0.75;exitDx=0;exitDy=0;strokeColor=#A8201A;fontFamily=Architects Daughter;fontSource=https%3A%2F%2Ffonts.googleapis.com%2Fcss%3Ffamily%3DArchitects%2BDaughter;fontSize=16;fontColor=#143642;fillColor=#FAE5C7;endArrow=none;endFill=0;" parent="1" source="ZoZSnqBtWPtHvVVjJ5M5-87" target="ZoZSnqBtWPtHvVVjJ5M5-101" edge="1">
          <mxGeometry relative="1" as="geometry">
            <mxPoint x="-194.99999999999977" y="465.0000000000002" as="targetPoint" />
          </mxGeometry>
        </mxCell>
        <mxCell id="ZoZSnqBtWPtHvVVjJ5M5-87" value="customer" style="rounded=1;whiteSpace=wrap;html=1;sketch=1;hachureGap=4;jiggle=2;curveFitting=1;strokeColor=#0F8B8D;fontFamily=Architects Daughter;fontSource=https%3A%2F%2Ffonts.googleapis.com%2Fcss%3Ffamily%3DArchitects%2BDaughter;fontSize=20;fontColor=#143642;fillColor=#FAE5C7;" parent="1" vertex="1">
          <mxGeometry x="650" y="791" width="120" height="60" as="geometry" />
        </mxCell>
        <mxCell id="ZoZSnqBtWPtHvVVjJ5M5-88" value="&lt;font style=&quot;font-size: 14px;&quot;&gt;customer_name&lt;/font&gt;" style="ellipse;whiteSpace=wrap;html=1;rounded=1;sketch=1;hachureGap=4;jiggle=2;curveFitting=1;strokeColor=#0F8B8D;fontFamily=Architects Daughter;fontSource=https%3A%2F%2Ffonts.googleapis.com%2Fcss%3Ffamily%3DArchitects%2BDaughter;fontSize=20;fontColor=#143642;fillColor=#FAE5C7;" parent="1" vertex="1">
          <mxGeometry x="555" y="880" width="120" height="80" as="geometry" />
        </mxCell>
        <mxCell id="ZoZSnqBtWPtHvVVjJ5M5-90" value="&lt;u&gt;customer_id&lt;/u&gt;" style="ellipse;whiteSpace=wrap;html=1;rounded=1;sketch=1;hachureGap=4;jiggle=2;curveFitting=1;strokeColor=#0F8B8D;fontFamily=Architects Daughter;fontSource=https%3A%2F%2Ffonts.googleapis.com%2Fcss%3Ffamily%3DArchitects%2BDaughter;fontSize=20;fontColor=#143642;fillColor=#FAE5C7;" parent="1" vertex="1">
          <mxGeometry x="645" y="950" width="120" height="80" as="geometry" />
        </mxCell>
        <mxCell id="ZoZSnqBtWPtHvVVjJ5M5-95" value="&lt;font style=&quot;font-size: 14px;&quot;&gt;customer_number&lt;/font&gt;" style="ellipse;whiteSpace=wrap;html=1;rounded=1;sketch=1;hachureGap=4;jiggle=2;curveFitting=1;strokeColor=#0F8B8D;fontFamily=Architects Daughter;fontSource=https%3A%2F%2Ffonts.googleapis.com%2Fcss%3Ffamily%3DArchitects%2BDaughter;fontSize=20;fontColor=#143642;fillColor=#FAE5C7;" parent="1" vertex="1">
          <mxGeometry x="715" y="870" width="120" height="80" as="geometry" />
        </mxCell>
        <mxCell id="ZoZSnqBtWPtHvVVjJ5M5-101" value="&lt;font style=&quot;font-size: 14px;&quot;&gt;customer_email&lt;/font&gt;" style="ellipse;whiteSpace=wrap;html=1;rounded=1;sketch=1;hachureGap=4;jiggle=2;curveFitting=1;strokeColor=#0F8B8D;fontFamily=Architects Daughter;fontSource=https%3A%2F%2Ffonts.googleapis.com%2Fcss%3Ffamily%3DArchitects%2BDaughter;fontSize=20;fontColor=#143642;fillColor=#FAE5C7;" parent="1" vertex="1">
          <mxGeometry x="805" y="710" width="120" height="80" as="geometry" />
        </mxCell>
        <mxCell id="ZoZSnqBtWPtHvVVjJ5M5-106" style="edgeStyle=orthogonalEdgeStyle;rounded=1;sketch=1;hachureGap=4;jiggle=2;curveFitting=1;orthogonalLoop=1;jettySize=auto;html=1;exitX=0.5;exitY=0;exitDx=0;exitDy=0;entryX=0.5;entryY=1;entryDx=0;entryDy=0;strokeColor=#A8201A;fontFamily=Architects Daughter;fontSource=https%3A%2F%2Ffonts.googleapis.com%2Fcss%3Ffamily%3DArchitects%2BDaughter;fontSize=16;fontColor=#143642;fillColor=#FAE5C7;endArrow=none;endFill=0;" parent="1" source="ZoZSnqBtWPtHvVVjJ5M5-105" target="ZoZSnqBtWPtHvVVjJ5M5-52" edge="1">
          <mxGeometry relative="1" as="geometry" />
        </mxCell>
        <mxCell id="ZoZSnqBtWPtHvVVjJ5M5-107" style="edgeStyle=orthogonalEdgeStyle;rounded=1;sketch=1;hachureGap=4;jiggle=2;curveFitting=1;orthogonalLoop=1;jettySize=auto;html=1;exitX=0.5;exitY=1;exitDx=0;exitDy=0;entryX=0.5;entryY=0;entryDx=0;entryDy=0;strokeColor=#A8201A;fontFamily=Architects Daughter;fontSource=https%3A%2F%2Ffonts.googleapis.com%2Fcss%3Ffamily%3DArchitects%2BDaughter;fontSize=16;fontColor=#143642;fillColor=#FAE5C7;endArrow=none;endFill=0;" parent="1" source="ZoZSnqBtWPtHvVVjJ5M5-105" target="ZoZSnqBtWPtHvVVjJ5M5-87" edge="1">
          <mxGeometry relative="1" as="geometry" />
        </mxCell>
        <mxCell id="ZoZSnqBtWPtHvVVjJ5M5-105" value="has" style="rhombus;whiteSpace=wrap;html=1;rounded=1;sketch=1;hachureGap=4;jiggle=2;curveFitting=1;strokeColor=#0F8B8D;fontFamily=Architects Daughter;fontSource=https%3A%2F%2Ffonts.googleapis.com%2Fcss%3Ffamily%3DArchitects%2BDaughter;fontSize=20;fontColor=#143642;fillColor=#FAE5C7;" parent="1" vertex="1">
          <mxGeometry x="670" y="660" width="80" height="80" as="geometry" />
        </mxCell>
        <mxCell id="ZoZSnqBtWPtHvVVjJ5M5-112" value="discount" style="ellipse;whiteSpace=wrap;html=1;rounded=1;sketch=1;hachureGap=4;jiggle=2;curveFitting=1;strokeColor=#0F8B8D;fontFamily=Architects Daughter;fontSource=https%3A%2F%2Ffonts.googleapis.com%2Fcss%3Ffamily%3DArchitects%2BDaughter;fontSize=20;fontColor=#143642;fillColor=#FAE5C7;" parent="1" vertex="1">
          <mxGeometry x="835" y="409" width="120" height="80" as="geometry" />
        </mxCell>
        <mxCell id="ZoZSnqBtWPtHvVVjJ5M5-115" value="total_cost" style="ellipse;whiteSpace=wrap;html=1;rounded=1;sketch=1;hachureGap=4;jiggle=2;curveFitting=1;strokeColor=#0F8B8D;fontFamily=Architects Daughter;fontSource=https%3A%2F%2Ffonts.googleapis.com%2Fcss%3Ffamily%3DArchitects%2BDaughter;fontSize=20;fontColor=#143642;fillColor=#FAE5C7;" parent="1" vertex="1">
          <mxGeometry x="900" y="545" width="120" height="80" as="geometry" />
        </mxCell>
        <mxCell id="ZoZSnqBtWPtHvVVjJ5M5-120" style="edgeStyle=orthogonalEdgeStyle;rounded=1;sketch=1;hachureGap=4;jiggle=2;curveFitting=1;orthogonalLoop=1;jettySize=auto;html=1;exitX=1;exitY=0.5;exitDx=0;exitDy=0;entryX=0;entryY=0.25;entryDx=0;entryDy=0;strokeColor=#A8201A;fontFamily=Architects Daughter;fontSource=https%3A%2F%2Ffonts.googleapis.com%2Fcss%3Ffamily%3DArchitects%2BDaughter;fontSize=16;fontColor=#143642;fillColor=#FAE5C7;endArrow=none;endFill=0;" parent="1" source="ZoZSnqBtWPtHvVVjJ5M5-116" target="ZoZSnqBtWPtHvVVjJ5M5-52" edge="1">
          <mxGeometry relative="1" as="geometry" />
        </mxCell>
        <mxCell id="ZoZSnqBtWPtHvVVjJ5M5-116" value="has" style="rhombus;whiteSpace=wrap;html=1;rounded=1;sketch=1;hachureGap=4;jiggle=2;curveFitting=1;strokeColor=#0F8B8D;fontFamily=Architects Daughter;fontSource=https%3A%2F%2Ffonts.googleapis.com%2Fcss%3Ffamily%3DArchitects%2BDaughter;fontSize=20;fontColor=#143642;fillColor=#FAE5C7;" parent="1" vertex="1">
          <mxGeometry x="300" y="430" width="80" height="80" as="geometry" />
        </mxCell>
        <mxCell id="ZoZSnqBtWPtHvVVjJ5M5-128" value="&lt;font style=&quot;font-size: 24px;&quot;&gt;m&lt;/font&gt;" style="text;html=1;align=center;verticalAlign=middle;resizable=0;points=[];autosize=1;strokeColor=none;fillColor=none;fontSize=20;fontFamily=Architects Daughter;fontColor=#143642;rounded=1;" parent="1" vertex="1">
          <mxGeometry x="-250" y="193" width="40" height="40" as="geometry" />
        </mxCell>
        <mxCell id="ZoZSnqBtWPtHvVVjJ5M5-129" value="&lt;font style=&quot;font-size: 24px;&quot;&gt;1&lt;/font&gt;" style="text;html=1;align=center;verticalAlign=middle;resizable=0;points=[];autosize=1;strokeColor=none;fillColor=none;fontSize=20;fontFamily=Architects Daughter;fontColor=#143642;rounded=1;" parent="1" vertex="1">
          <mxGeometry x="25" y="193" width="30" height="40" as="geometry" />
        </mxCell>
        <mxCell id="ZoZSnqBtWPtHvVVjJ5M5-131" style="edgeStyle=orthogonalEdgeStyle;rounded=1;sketch=1;hachureGap=4;jiggle=2;curveFitting=1;orthogonalLoop=1;jettySize=auto;html=1;exitX=0;exitY=0.5;exitDx=0;exitDy=0;strokeColor=#A8201A;fontFamily=Architects Daughter;fontSource=https%3A%2F%2Ffonts.googleapis.com%2Fcss%3Ffamily%3DArchitects%2BDaughter;fontSize=16;fontColor=#143642;fillColor=#FAE5C7;endArrow=none;endFill=0;" parent="1" target="ZoZSnqBtWPtHvVVjJ5M5-38" edge="1">
          <mxGeometry relative="1" as="geometry">
            <mxPoint x="-110" y="240" as="sourcePoint" />
            <mxPoint x="-320" y="220" as="targetPoint" />
          </mxGeometry>
        </mxCell>
        <mxCell id="ZoZSnqBtWPtHvVVjJ5M5-138" value="&lt;font style=&quot;font-size: 24px;&quot;&gt;n&lt;/font&gt;" style="text;html=1;align=center;verticalAlign=middle;resizable=0;points=[];autosize=1;strokeColor=none;fillColor=none;fontSize=20;fontFamily=Architects Daughter;fontColor=#143642;rounded=1;" parent="1" vertex="1">
          <mxGeometry x="145" y="630" width="40" height="40" as="geometry" />
        </mxCell>
        <mxCell id="ZoZSnqBtWPtHvVVjJ5M5-139" value="&lt;font style=&quot;font-size: 24px;&quot;&gt;m&lt;/font&gt;" style="text;html=1;align=center;verticalAlign=middle;resizable=0;points=[];autosize=1;strokeColor=none;fillColor=none;fontSize=20;fontFamily=Architects Daughter;fontColor=#143642;rounded=1;" parent="1" vertex="1">
          <mxGeometry x="590" y="565" width="40" height="40" as="geometry" />
        </mxCell>
        <mxCell id="ZoZSnqBtWPtHvVVjJ5M5-140" style="edgeStyle=orthogonalEdgeStyle;rounded=1;sketch=1;hachureGap=4;jiggle=2;curveFitting=1;orthogonalLoop=1;jettySize=auto;html=1;exitX=1;exitY=0.5;exitDx=0;exitDy=0;entryX=0;entryY=0.5;entryDx=0;entryDy=0;strokeColor=#A8201A;fontFamily=Architects Daughter;fontSource=https%3A%2F%2Ffonts.googleapis.com%2Fcss%3Ffamily%3DArchitects%2BDaughter;fontSize=16;fontColor=#143642;fillColor=#FAE5C7;endArrow=none;endFill=0;" parent="1" target="ZoZSnqBtWPtHvVVjJ5M5-69" edge="1">
          <mxGeometry relative="1" as="geometry">
            <mxPoint x="118" y="689.23" as="sourcePoint" />
            <mxPoint x="400" y="610.23" as="targetPoint" />
            <Array as="points">
              <mxPoint x="270" y="689" />
              <mxPoint x="270" y="610" />
              <mxPoint x="400" y="610" />
            </Array>
          </mxGeometry>
        </mxCell>
        <mxCell id="ZoZSnqBtWPtHvVVjJ5M5-141" style="edgeStyle=orthogonalEdgeStyle;rounded=1;sketch=1;hachureGap=4;jiggle=2;curveFitting=1;orthogonalLoop=1;jettySize=auto;html=1;exitX=1;exitY=0.5;exitDx=0;exitDy=0;strokeColor=#A8201A;fontFamily=Architects Daughter;fontSource=https%3A%2F%2Ffonts.googleapis.com%2Fcss%3Ffamily%3DArchitects%2BDaughter;fontSize=16;fontColor=#143642;fillColor=#FAE5C7;entryX=0;entryY=0.75;entryDx=0;entryDy=0;endArrow=none;endFill=0;" parent="1" source="ZoZSnqBtWPtHvVVjJ5M5-69" target="ZoZSnqBtWPtHvVVjJ5M5-52" edge="1">
          <mxGeometry relative="1" as="geometry">
            <mxPoint x="490" y="610" as="sourcePoint" />
            <mxPoint x="660" y="609" as="targetPoint" />
            <Array as="points">
              <mxPoint x="480" y="610" />
              <mxPoint x="660" y="610" />
              <mxPoint x="660" y="599" />
            </Array>
          </mxGeometry>
        </mxCell>
        <mxCell id="_BmU22wgfMabvPJ0uQ37-7" value="&lt;font style=&quot;font-size: 24px;&quot;&gt;m&lt;/font&gt;" style="text;html=1;align=center;verticalAlign=middle;resizable=0;points=[];autosize=1;strokeColor=none;fillColor=none;fontSize=20;fontFamily=Architects Daughter;fontColor=#143642;rounded=1;" parent="1" vertex="1">
          <mxGeometry x="600" y="520" width="40" height="40" as="geometry" />
        </mxCell>
        <mxCell id="_BmU22wgfMabvPJ0uQ37-9" value="&lt;font style=&quot;font-size: 24px;&quot;&gt;1&lt;/font&gt;" style="text;html=1;align=center;verticalAlign=middle;resizable=0;points=[];autosize=1;strokeColor=none;fillColor=none;fontSize=20;fontFamily=Architects Daughter;fontColor=#143642;rounded=1;" parent="1" vertex="1">
          <mxGeometry x="150" y="270" width="30" height="40" as="geometry" />
        </mxCell>
        <mxCell id="_BmU22wgfMabvPJ0uQ37-10" style="edgeStyle=orthogonalEdgeStyle;rounded=1;sketch=1;hachureGap=4;jiggle=2;curveFitting=1;orthogonalLoop=1;jettySize=auto;html=1;exitX=-0.433;exitY=-0.355;exitDx=0;exitDy=0;entryX=0;entryY=0.5;entryDx=0;entryDy=0;strokeColor=#A8201A;fontFamily=Architects Daughter;fontSource=https%3A%2F%2Ffonts.googleapis.com%2Fcss%3Ffamily%3DArchitects%2BDaughter;fontSize=16;fontColor=#143642;fillColor=#FAE5C7;endArrow=none;endFill=0;exitPerimeter=0;" parent="1" source="_BmU22wgfMabvPJ0uQ37-9" edge="1">
          <mxGeometry relative="1" as="geometry">
            <mxPoint x="150" y="270" as="sourcePoint" />
            <mxPoint x="310" y="480" as="targetPoint" />
            <Array as="points">
              <mxPoint x="137" y="271" />
              <mxPoint x="130" y="271" />
              <mxPoint x="130" y="480" />
            </Array>
          </mxGeometry>
        </mxCell>
        <mxCell id="_BmU22wgfMabvPJ0uQ37-11" value="customer" style="text;html=1;align=center;verticalAlign=middle;resizable=0;points=[];autosize=1;fontSize=27;fontFamily=Architects Daughter;shadow=1;fontStyle=1;rounded=1;" parent="1" vertex="1">
          <mxGeometry x="-820" y="969" width="140" height="50" as="geometry" />
        </mxCell>
        <mxCell id="ZoZSnqBtWPtHvVVjJ5M5-121" value="user&amp;nbsp;" style="text;html=1;align=center;verticalAlign=middle;resizable=0;points=[];autosize=1;fontSize=27;fontFamily=Architects Daughter;shadow=1;fontStyle=1;rounded=1;" parent="1" vertex="1">
          <mxGeometry x="-772.5" y="381" width="90" height="50" as="geometry" />
        </mxCell>
        <mxCell id="ZoZSnqBtWPtHvVVjJ5M5-122" value="pay" style="text;html=1;align=center;verticalAlign=middle;resizable=0;points=[];autosize=1;fontSize=27;fontFamily=Architects Daughter;shadow=1;fontStyle=1;rounded=1;" parent="1" vertex="1">
          <mxGeometry x="-647.5" y="380" width="70" height="50" as="geometry" />
        </mxCell>
        <mxCell id="ZoZSnqBtWPtHvVVjJ5M5-123" value="1" style="text;html=1;align=center;verticalAlign=middle;resizable=0;points=[];autosize=1;fontSize=27;fontFamily=Architects Daughter;shadow=1;fontStyle=1;rounded=1;" parent="1" vertex="1">
          <mxGeometry x="-747.5" y="460" width="30" height="50" as="geometry" />
        </mxCell>
        <mxCell id="ZoZSnqBtWPtHvVVjJ5M5-124" value="m" style="text;html=1;align=center;verticalAlign=middle;resizable=0;points=[];autosize=1;fontSize=27;fontFamily=Architects Daughter;shadow=1;fontStyle=1;rounded=1;" parent="1" vertex="1">
          <mxGeometry x="-632.5" y="460" width="40" height="50" as="geometry" />
        </mxCell>
        <mxCell id="ZoZSnqBtWPtHvVVjJ5M5-125" value="1" style="text;html=1;align=center;verticalAlign=middle;resizable=0;points=[];autosize=1;fontSize=27;fontFamily=Architects Daughter;shadow=1;fontStyle=1;rounded=1;" parent="1" vertex="1">
          <mxGeometry x="-630" y="536" width="30" height="50" as="geometry" />
        </mxCell>
        <mxCell id="ZoZSnqBtWPtHvVVjJ5M5-126" value="1" style="text;html=1;align=center;verticalAlign=middle;resizable=0;points=[];autosize=1;fontSize=27;fontFamily=Architects Daughter;shadow=1;fontStyle=1;rounded=1;" parent="1" vertex="1">
          <mxGeometry x="-747.5" y="531" width="30" height="50" as="geometry" />
        </mxCell>
        <mxCell id="ZoZSnqBtWPtHvVVjJ5M5-132" value="room" style="text;html=1;align=center;verticalAlign=middle;resizable=0;points=[];autosize=1;fontSize=27;fontFamily=Architects Daughter;shadow=1;fontStyle=1;rounded=1;" parent="1" vertex="1">
          <mxGeometry x="-787.5" y="601" width="90" height="50" as="geometry" />
        </mxCell>
        <mxCell id="ZoZSnqBtWPtHvVVjJ5M5-133" value="datils" style="text;html=1;align=center;verticalAlign=middle;resizable=0;points=[];autosize=1;fontSize=27;fontFamily=Architects Daughter;shadow=1;fontStyle=1;rounded=1;" parent="1" vertex="1">
          <mxGeometry x="-657.5" y="601" width="80" height="50" as="geometry" />
        </mxCell>
        <mxCell id="ZoZSnqBtWPtHvVVjJ5M5-134" value="1" style="text;html=1;align=center;verticalAlign=middle;resizable=0;points=[];autosize=1;fontSize=27;fontFamily=Architects Daughter;shadow=1;fontStyle=1;rounded=1;" parent="1" vertex="1">
          <mxGeometry x="-755" y="671" width="30" height="50" as="geometry" />
        </mxCell>
        <mxCell id="ZoZSnqBtWPtHvVVjJ5M5-135" value="m" style="text;html=1;align=center;verticalAlign=middle;resizable=0;points=[];autosize=1;fontSize=27;fontFamily=Architects Daughter;shadow=1;fontStyle=1;rounded=1;" parent="1" vertex="1">
          <mxGeometry x="-640" y="671" width="40" height="50" as="geometry" />
        </mxCell>
        <mxCell id="ZoZSnqBtWPtHvVVjJ5M5-136" value="1" style="text;html=1;align=center;verticalAlign=middle;resizable=0;points=[];autosize=1;fontSize=27;fontFamily=Architects Daughter;shadow=1;fontStyle=1;rounded=1;" parent="1" vertex="1">
          <mxGeometry x="-635" y="731" width="30" height="50" as="geometry" />
        </mxCell>
        <mxCell id="ZoZSnqBtWPtHvVVjJ5M5-137" value="1" style="text;html=1;align=center;verticalAlign=middle;resizable=0;points=[];autosize=1;fontSize=27;fontFamily=Architects Daughter;shadow=1;fontStyle=1;rounded=1;" parent="1" vertex="1">
          <mxGeometry x="-755" y="731" width="30" height="50" as="geometry" />
        </mxCell>
        <mxCell id="_BmU22wgfMabvPJ0uQ37-1" value="user" style="text;html=1;align=center;verticalAlign=middle;resizable=0;points=[];autosize=1;fontSize=27;fontFamily=Architects Daughter;shadow=1;fontStyle=1;rounded=1;" parent="1" vertex="1">
          <mxGeometry x="-787.5" y="791" width="80" height="50" as="geometry" />
        </mxCell>
        <mxCell id="_BmU22wgfMabvPJ0uQ37-2" value="datils" style="text;html=1;align=center;verticalAlign=middle;resizable=0;points=[];autosize=1;fontSize=27;fontFamily=Architects Daughter;shadow=1;fontStyle=1;rounded=1;" parent="1" vertex="1">
          <mxGeometry x="-667.5" y="791" width="80" height="50" as="geometry" />
        </mxCell>
        <mxCell id="_BmU22wgfMabvPJ0uQ37-3" value="1" style="text;html=1;align=center;verticalAlign=middle;resizable=0;points=[];autosize=1;fontSize=27;fontFamily=Architects Daughter;shadow=1;fontStyle=1;rounded=1;" parent="1" vertex="1">
          <mxGeometry x="-762.5" y="847" width="30" height="50" as="geometry" />
        </mxCell>
        <mxCell id="_BmU22wgfMabvPJ0uQ37-4" value="m" style="text;html=1;align=center;verticalAlign=middle;resizable=0;points=[];autosize=1;fontSize=27;fontFamily=Architects Daughter;shadow=1;fontStyle=1;rounded=1;" parent="1" vertex="1">
          <mxGeometry x="-647.5" y="850" width="40" height="50" as="geometry" />
        </mxCell>
        <mxCell id="_BmU22wgfMabvPJ0uQ37-5" value="1" style="text;html=1;align=center;verticalAlign=middle;resizable=0;points=[];autosize=1;fontSize=27;fontFamily=Architects Daughter;shadow=1;fontStyle=1;rounded=1;" parent="1" vertex="1">
          <mxGeometry x="-642.5" y="910" width="30" height="50" as="geometry" />
        </mxCell>
        <mxCell id="_BmU22wgfMabvPJ0uQ37-6" value="1" style="text;html=1;align=center;verticalAlign=middle;resizable=0;points=[];autosize=1;fontSize=27;fontFamily=Architects Daughter;shadow=1;fontStyle=1;rounded=1;" parent="1" vertex="1">
          <mxGeometry x="-762.5" y="910" width="30" height="50" as="geometry" />
        </mxCell>
        <mxCell id="_BmU22wgfMabvPJ0uQ37-12" value="datils" style="text;html=1;align=center;verticalAlign=middle;resizable=0;points=[];autosize=1;fontSize=27;fontFamily=Architects Daughter;shadow=1;fontStyle=1;rounded=1;" parent="1" vertex="1">
          <mxGeometry x="-658.5" y="970" width="80" height="50" as="geometry" />
        </mxCell>
        <mxCell id="_BmU22wgfMabvPJ0uQ37-13" value="1" style="text;html=1;align=center;verticalAlign=middle;resizable=0;points=[];autosize=1;fontSize=27;fontFamily=Architects Daughter;shadow=1;fontStyle=1;rounded=1;" parent="1" vertex="1">
          <mxGeometry x="-772.5" y="1031" width="30" height="50" as="geometry" />
        </mxCell>
        <mxCell id="_BmU22wgfMabvPJ0uQ37-14" value="m" style="text;html=1;align=center;verticalAlign=middle;resizable=0;points=[];autosize=1;fontSize=27;fontFamily=Architects Daughter;shadow=1;fontStyle=1;rounded=1;" parent="1" vertex="1">
          <mxGeometry x="-647.5" y="1031" width="40" height="50" as="geometry" />
        </mxCell>
        <mxCell id="_BmU22wgfMabvPJ0uQ37-15" value="1" style="text;html=1;align=center;verticalAlign=middle;resizable=0;points=[];autosize=1;fontSize=27;fontFamily=Architects Daughter;shadow=1;fontStyle=1;rounded=1;" parent="1" vertex="1">
          <mxGeometry x="-647.5" y="1111" width="30" height="50" as="geometry" />
        </mxCell>
        <mxCell id="_BmU22wgfMabvPJ0uQ37-16" value="1" style="text;html=1;align=center;verticalAlign=middle;resizable=0;points=[];autosize=1;fontSize=27;fontFamily=Architects Daughter;shadow=1;fontStyle=1;rounded=1;" parent="1" vertex="1">
          <mxGeometry x="-772.5" y="1111" width="30" height="50" as="geometry" />
        </mxCell>
        <mxCell id="_BmU22wgfMabvPJ0uQ37-17" value="product" style="text;html=1;align=center;verticalAlign=middle;resizable=0;points=[];autosize=1;fontSize=27;fontFamily=Architects Daughter;shadow=1;fontStyle=1;rounded=1;" parent="1" vertex="1">
          <mxGeometry x="-800" y="1191" width="120" height="50" as="geometry" />
        </mxCell>
        <mxCell id="_BmU22wgfMabvPJ0uQ37-18" value="datils" style="text;html=1;align=center;verticalAlign=middle;resizable=0;points=[];autosize=1;fontSize=27;fontFamily=Architects Daughter;shadow=1;fontStyle=1;rounded=1;" parent="1" vertex="1">
          <mxGeometry x="-660" y="1191" width="80" height="50" as="geometry" />
        </mxCell>
        <mxCell id="_BmU22wgfMabvPJ0uQ37-19" value="1" style="text;html=1;align=center;verticalAlign=middle;resizable=0;points=[];autosize=1;fontSize=27;fontFamily=Architects Daughter;shadow=1;fontStyle=1;rounded=1;" parent="1" vertex="1">
          <mxGeometry x="-772.5" y="1271" width="30" height="50" as="geometry" />
        </mxCell>
        <mxCell id="_BmU22wgfMabvPJ0uQ37-20" value="m" style="text;html=1;align=center;verticalAlign=middle;resizable=0;points=[];autosize=1;fontSize=27;fontFamily=Architects Daughter;shadow=1;fontStyle=1;rounded=1;" parent="1" vertex="1">
          <mxGeometry x="-652.5" y="1271" width="40" height="50" as="geometry" />
        </mxCell>
        <mxCell id="_BmU22wgfMabvPJ0uQ37-21" value="1" style="text;html=1;align=center;verticalAlign=middle;resizable=0;points=[];autosize=1;fontSize=27;fontFamily=Architects Daughter;shadow=1;fontStyle=1;rounded=1;" parent="1" vertex="1">
          <mxGeometry x="-647.5" y="1351" width="30" height="50" as="geometry" />
        </mxCell>
        <mxCell id="_BmU22wgfMabvPJ0uQ37-22" value="n" style="text;html=1;align=center;verticalAlign=middle;resizable=0;points=[];autosize=1;fontSize=27;fontFamily=Architects Daughter;shadow=1;fontStyle=1;rounded=1;" parent="1" vertex="1">
          <mxGeometry x="-777.5" y="1351" width="40" height="50" as="geometry" />
        </mxCell>
        <mxCell id="_BmU22wgfMabvPJ0uQ37-25" value="&lt;font style=&quot;font-size: 24px;&quot;&gt;m&lt;/font&gt;" style="text;html=1;align=center;verticalAlign=middle;resizable=0;points=[];autosize=1;strokeColor=none;fillColor=none;fontSize=20;fontFamily=Architects Daughter;fontColor=#143642;rounded=1;" parent="1" vertex="1">
          <mxGeometry x="635" y="420" width="40" height="40" as="geometry" />
        </mxCell>
        <mxCell id="_BmU22wgfMabvPJ0uQ37-26" value="&lt;span style=&quot;font-size: 24px;&quot;&gt;n&lt;/span&gt;" style="text;html=1;align=center;verticalAlign=middle;resizable=0;points=[];autosize=1;strokeColor=none;fillColor=none;fontSize=20;fontFamily=Architects Daughter;fontColor=#143642;rounded=1;" parent="1" vertex="1">
          <mxGeometry x="620" y="260" width="40" height="40" as="geometry" />
        </mxCell>
        <mxCell id="0fGjEjzQ7UVBvBYXMUyN-3" value="&lt;font style=&quot;font-size: 24px;&quot;&gt;m&lt;/font&gt;" style="text;html=1;align=center;verticalAlign=middle;resizable=0;points=[];autosize=1;strokeColor=none;fillColor=none;fontSize=20;fontFamily=Architects Daughter;fontColor=#143642;rounded=1;" parent="1" vertex="1">
          <mxGeometry x="720" y="620" width="40" height="40" as="geometry" />
        </mxCell>
        <mxCell id="0fGjEjzQ7UVBvBYXMUyN-4" value="&lt;font style=&quot;font-size: 24px;&quot;&gt;1&lt;/font&gt;" style="text;html=1;align=center;verticalAlign=middle;resizable=0;points=[];autosize=1;strokeColor=none;fillColor=none;fontSize=20;fontFamily=Architects Daughter;fontColor=#143642;rounded=1;" parent="1" vertex="1">
          <mxGeometry x="720" y="750" width="30" height="40" as="geometry" />
        </mxCell>
        <mxCell id="0fGjEjzQ7UVBvBYXMUyN-6" style="edgeStyle=orthogonalEdgeStyle;rounded=1;sketch=1;hachureGap=4;jiggle=2;curveFitting=1;orthogonalLoop=1;jettySize=auto;html=1;exitX=0.5;exitY=1;exitDx=0;exitDy=0;entryX=0.5;entryY=0;entryDx=0;entryDy=0;strokeColor=#A8201A;fontFamily=Architects Daughter;fontSource=https%3A%2F%2Ffonts.googleapis.com%2Fcss%3Ffamily%3DArchitects%2BDaughter;fontSize=16;fontColor=#143642;fillColor=#FAE5C7;endArrow=none;endFill=0;" parent="1" edge="1">
          <mxGeometry relative="1" as="geometry">
            <mxPoint x="716" y="739" as="sourcePoint" />
            <mxPoint x="716" y="790" as="targetPoint" />
          </mxGeometry>
        </mxCell>
        <mxCell id="FdaxyXjNPmpwnFK73rwf-1" value="SSN" style="rounded=1;whiteSpace=wrap;html=1;sketch=1;hachureGap=4;jiggle=2;curveFitting=1;fontFamily=Architects Daughter;fontSource=https%3A%2F%2Ffonts.googleapis.com%2Fcss%3Ffamily%3DArchitects%2BDaughter;fontSize=20;labelBackgroundColor=none;fillColor=#FAE5C7;strokeColor=#0F8B8D;fontColor=#143642;arcSize=50;" parent="1" vertex="1">
          <mxGeometry x="-20" y="290" width="120" height="60" as="geometry" />
        </mxCell>
      </root>
    </mxGraphModel>
  </diagram>
  <diagram id="-8Tkj-BmukxfuCXQPnm2" name="schema_playstation_system">
    <mxGraphModel dx="2670" dy="1978" grid="1" gridSize="10" guides="1" tooltips="1" connect="1" arrows="1" fold="1" page="1" pageScale="1" pageWidth="827" pageHeight="1169" math="0" shadow="0">
      <root>
        <mxCell id="0" />
        <mxCell id="1" parent="0" />
        <mxCell id="RWYREJHFsw9ylqag1IIU-18" value="User" style="shape=table;startSize=30;container=1;collapsible=0;childLayout=tableLayout;hachureGap=4;fontFamily=Architects Daughter;fontSource=https%3A%2F%2Ffonts.googleapis.com%2Fcss%3Ffamily%3DArchitects%2BDaughter;fontSize=20;align=left;labelBackgroundColor=none;fillColor=#FAE5C7;strokeColor=#0F8B8D;fontColor=#143642;rounded=1;fontStyle=1;sketch=1;curveFitting=1;jiggle=2;" parent="1" vertex="1">
          <mxGeometry x="-42" y="247" width="950" height="70" as="geometry" />
        </mxCell>
        <mxCell id="RWYREJHFsw9ylqag1IIU-19" value="" style="shape=tableRow;horizontal=0;startSize=0;swimlaneHead=0;swimlaneBody=0;strokeColor=#0F8B8D;top=0;left=0;bottom=0;right=0;collapsible=0;dropTarget=0;fillColor=none;points=[[0,0.5],[1,0.5]];portConstraint=eastwest;hachureGap=4;fontFamily=Architects Daughter;fontSource=https%3A%2F%2Ffonts.googleapis.com%2Fcss%3Ffamily%3DArchitects%2BDaughter;fontSize=20;labelBackgroundColor=none;fontColor=#143642;rounded=1;sketch=1;curveFitting=1;jiggle=2;" parent="RWYREJHFsw9ylqag1IIU-18" vertex="1">
          <mxGeometry y="30" width="950" height="40" as="geometry" />
        </mxCell>
        <mxCell id="RWYREJHFsw9ylqag1IIU-20" value="&lt;u&gt;user_id&amp;nbsp;&lt;/u&gt;" style="shape=partialRectangle;html=1;whiteSpace=wrap;connectable=0;strokeColor=#0F8B8D;overflow=hidden;fillColor=none;top=0;left=0;bottom=0;right=0;pointerEvents=1;hachureGap=4;fontFamily=Architects Daughter;fontSource=https%3A%2F%2Ffonts.googleapis.com%2Fcss%3Ffamily%3DArchitects%2BDaughter;fontSize=20;labelBackgroundColor=none;fontColor=#143642;align=left;rounded=1;sketch=1;curveFitting=1;jiggle=2;" parent="RWYREJHFsw9ylqag1IIU-19" vertex="1">
          <mxGeometry width="104" height="40" as="geometry">
            <mxRectangle width="104" height="40" as="alternateBounds" />
          </mxGeometry>
        </mxCell>
        <mxCell id="RWYREJHFsw9ylqag1IIU-21" value="user_permation" style="shape=partialRectangle;html=1;whiteSpace=wrap;connectable=0;strokeColor=#0F8B8D;overflow=hidden;fillColor=none;top=0;left=0;bottom=0;right=0;pointerEvents=1;hachureGap=4;fontFamily=Architects Daughter;fontSource=https%3A%2F%2Ffonts.googleapis.com%2Fcss%3Ffamily%3DArchitects%2BDaughter;fontSize=20;labelBackgroundColor=none;fontColor=#143642;align=left;rounded=1;sketch=1;curveFitting=1;jiggle=2;" parent="RWYREJHFsw9ylqag1IIU-19" vertex="1">
          <mxGeometry x="104" width="188" height="40" as="geometry">
            <mxRectangle width="188" height="40" as="alternateBounds" />
          </mxGeometry>
        </mxCell>
        <mxCell id="RWYREJHFsw9ylqag1IIU-22" value="user_name" style="shape=partialRectangle;html=1;whiteSpace=wrap;connectable=0;strokeColor=#0F8B8D;overflow=hidden;fillColor=none;top=0;left=0;bottom=0;right=0;pointerEvents=1;hachureGap=4;fontFamily=Architects Daughter;fontSource=https%3A%2F%2Ffonts.googleapis.com%2Fcss%3Ffamily%3DArchitects%2BDaughter;fontSize=20;labelBackgroundColor=none;fontColor=#143642;align=left;rounded=1;sketch=1;curveFitting=1;jiggle=2;" parent="RWYREJHFsw9ylqag1IIU-19" vertex="1">
          <mxGeometry x="292" width="142" height="40" as="geometry">
            <mxRectangle width="142" height="40" as="alternateBounds" />
          </mxGeometry>
        </mxCell>
        <mxCell id="RWYREJHFsw9ylqag1IIU-23" value="SSN" style="shape=partialRectangle;html=1;whiteSpace=wrap;connectable=0;strokeColor=#0F8B8D;overflow=hidden;fillColor=none;top=0;left=0;bottom=0;right=0;pointerEvents=1;hachureGap=4;fontFamily=Architects Daughter;fontSource=https%3A%2F%2Ffonts.googleapis.com%2Fcss%3Ffamily%3DArchitects%2BDaughter;fontSize=20;labelBackgroundColor=none;fontColor=#143642;align=left;rounded=1;sketch=1;curveFitting=1;jiggle=2;" parent="RWYREJHFsw9ylqag1IIU-19" vertex="1">
          <mxGeometry x="434" width="59" height="40" as="geometry">
            <mxRectangle width="59" height="40" as="alternateBounds" />
          </mxGeometry>
        </mxCell>
        <mxCell id="RWYREJHFsw9ylqag1IIU-24" value="user_e-mail" style="shape=partialRectangle;html=1;whiteSpace=wrap;connectable=0;strokeColor=#0F8B8D;overflow=hidden;fillColor=none;top=0;left=0;bottom=0;right=0;pointerEvents=1;hachureGap=4;fontFamily=Architects Daughter;fontSource=https%3A%2F%2Ffonts.googleapis.com%2Fcss%3Ffamily%3DArchitects%2BDaughter;fontSize=20;labelBackgroundColor=none;fontColor=#143642;align=left;rounded=1;sketch=1;curveFitting=1;jiggle=2;" parent="RWYREJHFsw9ylqag1IIU-19" vertex="1">
          <mxGeometry x="493" width="140" height="40" as="geometry">
            <mxRectangle width="140" height="40" as="alternateBounds" />
          </mxGeometry>
        </mxCell>
        <mxCell id="RWYREJHFsw9ylqag1IIU-25" value="user_address" style="shape=partialRectangle;html=1;whiteSpace=wrap;connectable=0;strokeColor=#0F8B8D;overflow=hidden;fillColor=none;top=0;left=0;bottom=0;right=0;pointerEvents=1;hachureGap=4;fontFamily=Architects Daughter;fontSource=https%3A%2F%2Ffonts.googleapis.com%2Fcss%3Ffamily%3DArchitects%2BDaughter;fontSize=20;labelBackgroundColor=none;fontColor=#143642;align=left;rounded=1;sketch=1;curveFitting=1;jiggle=2;" parent="RWYREJHFsw9ylqag1IIU-19" vertex="1">
          <mxGeometry x="633" width="165" height="40" as="geometry">
            <mxRectangle width="165" height="40" as="alternateBounds" />
          </mxGeometry>
        </mxCell>
        <mxCell id="RWYREJHFsw9ylqag1IIU-26" value="user_password" style="shape=partialRectangle;html=1;whiteSpace=wrap;connectable=0;strokeColor=#0F8B8D;overflow=hidden;fillColor=none;top=0;left=0;bottom=0;right=0;pointerEvents=1;hachureGap=4;fontFamily=Architects Daughter;fontSource=https%3A%2F%2Ffonts.googleapis.com%2Fcss%3Ffamily%3DArchitects%2BDaughter;fontSize=20;labelBackgroundColor=none;fontColor=#143642;rounded=1;align=left;sketch=1;curveFitting=1;jiggle=2;" parent="RWYREJHFsw9ylqag1IIU-19" vertex="1">
          <mxGeometry x="798" width="152" height="40" as="geometry">
            <mxRectangle width="152" height="40" as="alternateBounds" />
          </mxGeometry>
        </mxCell>
        <mxCell id="YpaAvpMWEU2DPBWhLSGL-1" value="datils" style="shape=table;startSize=30;container=1;collapsible=0;childLayout=tableLayout;hachureGap=4;fontFamily=Architects Daughter;fontSource=https%3A%2F%2Ffonts.googleapis.com%2Fcss%3Ffamily%3DArchitects%2BDaughter;fontSize=20;align=left;labelBackgroundColor=none;fillColor=#FAE5C7;strokeColor=#0F8B8D;fontColor=#143642;rounded=1;fontStyle=1;sketch=1;curveFitting=1;jiggle=2;" parent="1" vertex="1">
          <mxGeometry x="-40" y="380" width="990" height="70" as="geometry" />
        </mxCell>
        <mxCell id="YpaAvpMWEU2DPBWhLSGL-2" value="" style="shape=tableRow;horizontal=0;startSize=0;swimlaneHead=0;swimlaneBody=0;strokeColor=#0F8B8D;top=0;left=0;bottom=0;right=0;collapsible=0;dropTarget=0;fillColor=none;points=[[0,0.5],[1,0.5]];portConstraint=eastwest;hachureGap=4;fontFamily=Architects Daughter;fontSource=https%3A%2F%2Ffonts.googleapis.com%2Fcss%3Ffamily%3DArchitects%2BDaughter;fontSize=20;labelBackgroundColor=none;fontColor=#143642;rounded=1;sketch=1;curveFitting=1;jiggle=2;" parent="YpaAvpMWEU2DPBWhLSGL-1" vertex="1">
          <mxGeometry y="30" width="990" height="40" as="geometry" />
        </mxCell>
        <mxCell id="YpaAvpMWEU2DPBWhLSGL-3" value="&lt;u&gt;dat_id&lt;/u&gt;" style="shape=partialRectangle;html=1;whiteSpace=wrap;connectable=0;strokeColor=#0F8B8D;overflow=hidden;fillColor=none;top=0;left=0;bottom=0;right=0;pointerEvents=1;hachureGap=4;fontFamily=Architects Daughter;fontSource=https%3A%2F%2Ffonts.googleapis.com%2Fcss%3Ffamily%3DArchitects%2BDaughter;fontSize=20;labelBackgroundColor=none;fontColor=#143642;align=left;rounded=1;sketch=1;curveFitting=1;jiggle=2;" parent="YpaAvpMWEU2DPBWhLSGL-2" vertex="1">
          <mxGeometry width="88" height="40" as="geometry">
            <mxRectangle width="88" height="40" as="alternateBounds" />
          </mxGeometry>
        </mxCell>
        <mxCell id="YpaAvpMWEU2DPBWhLSGL-4" value="start_time" style="shape=partialRectangle;html=1;whiteSpace=wrap;connectable=0;strokeColor=#0F8B8D;overflow=hidden;fillColor=none;top=0;left=0;bottom=0;right=0;pointerEvents=1;hachureGap=4;fontFamily=Architects Daughter;fontSource=https%3A%2F%2Ffonts.googleapis.com%2Fcss%3Ffamily%3DArchitects%2BDaughter;fontSize=20;labelBackgroundColor=none;fontColor=#143642;align=left;rounded=1;sketch=1;curveFitting=1;jiggle=2;" parent="YpaAvpMWEU2DPBWhLSGL-2" vertex="1">
          <mxGeometry x="88" width="135" height="40" as="geometry">
            <mxRectangle width="135" height="40" as="alternateBounds" />
          </mxGeometry>
        </mxCell>
        <mxCell id="YpaAvpMWEU2DPBWhLSGL-5" value="end_time" style="shape=partialRectangle;html=1;whiteSpace=wrap;connectable=0;strokeColor=#0F8B8D;overflow=hidden;fillColor=none;top=0;left=0;bottom=0;right=0;pointerEvents=1;hachureGap=4;fontFamily=Architects Daughter;fontSource=https%3A%2F%2Ffonts.googleapis.com%2Fcss%3Ffamily%3DArchitects%2BDaughter;fontSize=20;labelBackgroundColor=none;fontColor=#143642;align=left;rounded=1;sketch=1;curveFitting=1;jiggle=2;" parent="YpaAvpMWEU2DPBWhLSGL-2" vertex="1">
          <mxGeometry x="223" width="115" height="40" as="geometry">
            <mxRectangle width="115" height="40" as="alternateBounds" />
          </mxGeometry>
        </mxCell>
        <mxCell id="YpaAvpMWEU2DPBWhLSGL-6" value="discount" style="shape=partialRectangle;html=1;whiteSpace=wrap;connectable=0;strokeColor=#0F8B8D;overflow=hidden;fillColor=none;top=0;left=0;bottom=0;right=0;pointerEvents=1;hachureGap=4;fontFamily=Architects Daughter;fontSource=https%3A%2F%2Ffonts.googleapis.com%2Fcss%3Ffamily%3DArchitects%2BDaughter;fontSize=20;labelBackgroundColor=none;fontColor=#143642;align=left;rounded=1;sketch=1;curveFitting=1;jiggle=2;" parent="YpaAvpMWEU2DPBWhLSGL-2" vertex="1">
          <mxGeometry x="338" width="114" height="40" as="geometry">
            <mxRectangle width="114" height="40" as="alternateBounds" />
          </mxGeometry>
        </mxCell>
        <mxCell id="YpaAvpMWEU2DPBWhLSGL-7" value="total_cost" style="shape=partialRectangle;html=1;whiteSpace=wrap;connectable=0;strokeColor=#0F8B8D;overflow=hidden;fillColor=none;top=0;left=0;bottom=0;right=0;pointerEvents=1;hachureGap=4;fontFamily=Architects Daughter;fontSource=https%3A%2F%2Ffonts.googleapis.com%2Fcss%3Ffamily%3DArchitects%2BDaughter;fontSize=20;labelBackgroundColor=none;fontColor=#143642;align=left;rounded=1;sketch=1;curveFitting=1;jiggle=2;" parent="YpaAvpMWEU2DPBWhLSGL-2" vertex="1">
          <mxGeometry x="452" width="138" height="40" as="geometry">
            <mxRectangle width="138" height="40" as="alternateBounds" />
          </mxGeometry>
        </mxCell>
        <mxCell id="YpaAvpMWEU2DPBWhLSGL-8" value="user_address" style="shape=partialRectangle;html=1;whiteSpace=wrap;connectable=0;strokeColor=#0F8B8D;overflow=hidden;fillColor=none;top=0;left=0;bottom=0;right=0;pointerEvents=1;hachureGap=4;fontFamily=Architects Daughter;fontSource=https%3A%2F%2Ffonts.googleapis.com%2Fcss%3Ffamily%3DArchitects%2BDaughter;fontSize=20;labelBackgroundColor=none;fontColor=#143642;align=left;rounded=1;sketch=1;curveFitting=1;jiggle=2;" parent="YpaAvpMWEU2DPBWhLSGL-2" vertex="1">
          <mxGeometry x="590" width="150" height="40" as="geometry">
            <mxRectangle width="150" height="40" as="alternateBounds" />
          </mxGeometry>
        </mxCell>
        <mxCell id="Bi2u_K4jwl0xlh-HxCu5-1" value="user_id" style="shape=partialRectangle;html=1;whiteSpace=wrap;connectable=0;strokeColor=#0F8B8D;overflow=hidden;fillColor=none;top=0;left=0;bottom=0;right=0;pointerEvents=1;hachureGap=4;fontFamily=Architects Daughter;fontSource=https%3A%2F%2Ffonts.googleapis.com%2Fcss%3Ffamily%3DArchitects%2BDaughter;fontSize=20;labelBackgroundColor=none;fontColor=#143642;align=left;rounded=1;sketch=1;curveFitting=1;jiggle=2;" parent="YpaAvpMWEU2DPBWhLSGL-2" vertex="1">
          <mxGeometry x="740" width="100" height="40" as="geometry">
            <mxRectangle width="100" height="40" as="alternateBounds" />
          </mxGeometry>
        </mxCell>
        <mxCell id="ssM94ziBCvkDO72ZLjY--1" value="customer_id" style="shape=partialRectangle;html=1;whiteSpace=wrap;connectable=0;strokeColor=#0F8B8D;overflow=hidden;fillColor=none;top=0;left=0;bottom=0;right=0;pointerEvents=1;hachureGap=4;fontFamily=Architects Daughter;fontSource=https%3A%2F%2Ffonts.googleapis.com%2Fcss%3Ffamily%3DArchitects%2BDaughter;fontSize=20;labelBackgroundColor=none;fontColor=#143642;align=left;rounded=1;sketch=1;curveFitting=1;jiggle=2;" parent="YpaAvpMWEU2DPBWhLSGL-2" vertex="1">
          <mxGeometry x="840" width="150" height="40" as="geometry">
            <mxRectangle width="150" height="40" as="alternateBounds" />
          </mxGeometry>
        </mxCell>
        <mxCell id="vFC06uPmckTZ2XTKAsMe-1" value="product" style="shape=table;startSize=30;container=1;collapsible=0;childLayout=tableLayout;hachureGap=4;fontFamily=Architects Daughter;fontSource=https%3A%2F%2Ffonts.googleapis.com%2Fcss%3Ffamily%3DArchitects%2BDaughter;fontSize=20;align=left;labelBackgroundColor=none;fillColor=#FAE5C7;strokeColor=#0F8B8D;fontColor=#143642;rounded=1;fontStyle=1;sketch=1;curveFitting=1;jiggle=2;" parent="1" vertex="1">
          <mxGeometry x="-32" y="-103" width="671" height="70" as="geometry" />
        </mxCell>
        <mxCell id="vFC06uPmckTZ2XTKAsMe-2" value="" style="shape=tableRow;horizontal=0;startSize=0;swimlaneHead=0;swimlaneBody=0;strokeColor=#0F8B8D;top=0;left=0;bottom=0;right=0;collapsible=0;dropTarget=0;fillColor=none;points=[[0,0.5],[1,0.5]];portConstraint=eastwest;hachureGap=4;fontFamily=Architects Daughter;fontSource=https%3A%2F%2Ffonts.googleapis.com%2Fcss%3Ffamily%3DArchitects%2BDaughter;fontSize=20;labelBackgroundColor=none;fontColor=#143642;rounded=1;sketch=1;curveFitting=1;jiggle=2;" parent="vFC06uPmckTZ2XTKAsMe-1" vertex="1">
          <mxGeometry y="30" width="671" height="40" as="geometry" />
        </mxCell>
        <mxCell id="vFC06uPmckTZ2XTKAsMe-3" value="&lt;u style=&quot;border-color: var(--border-color); text-align: center;&quot;&gt;product_id&lt;/u&gt;" style="shape=partialRectangle;html=1;whiteSpace=wrap;connectable=0;strokeColor=#0F8B8D;overflow=hidden;fillColor=none;top=0;left=0;bottom=0;right=0;pointerEvents=1;hachureGap=4;fontFamily=Architects Daughter;fontSource=https%3A%2F%2Ffonts.googleapis.com%2Fcss%3Ffamily%3DArchitects%2BDaughter;fontSize=20;labelBackgroundColor=none;fontColor=#143642;align=left;rounded=1;sketch=1;curveFitting=1;jiggle=2;" parent="vFC06uPmckTZ2XTKAsMe-2" vertex="1">
          <mxGeometry width="110" height="40" as="geometry">
            <mxRectangle width="110" height="40" as="alternateBounds" />
          </mxGeometry>
        </mxCell>
        <mxCell id="vFC06uPmckTZ2XTKAsMe-4" value="product_cost" style="shape=partialRectangle;html=1;whiteSpace=wrap;connectable=0;strokeColor=#0F8B8D;overflow=hidden;fillColor=none;top=0;left=0;bottom=0;right=0;pointerEvents=1;hachureGap=4;fontFamily=Architects Daughter;fontSource=https%3A%2F%2Ffonts.googleapis.com%2Fcss%3Ffamily%3DArchitects%2BDaughter;fontSize=20;labelBackgroundColor=none;fontColor=#143642;align=left;rounded=1;sketch=1;curveFitting=1;jiggle=2;" parent="vFC06uPmckTZ2XTKAsMe-2" vertex="1">
          <mxGeometry x="110" width="140" height="40" as="geometry">
            <mxRectangle width="140" height="40" as="alternateBounds" />
          </mxGeometry>
        </mxCell>
        <mxCell id="vFC06uPmckTZ2XTKAsMe-5" value="Product_name" style="shape=partialRectangle;html=1;whiteSpace=wrap;connectable=0;strokeColor=#0F8B8D;overflow=hidden;fillColor=none;top=0;left=0;bottom=0;right=0;pointerEvents=1;hachureGap=4;fontFamily=Architects Daughter;fontSource=https%3A%2F%2Ffonts.googleapis.com%2Fcss%3Ffamily%3DArchitects%2BDaughter;fontSize=20;labelBackgroundColor=none;fontColor=#143642;align=left;rounded=1;sketch=1;curveFitting=1;jiggle=2;" parent="vFC06uPmckTZ2XTKAsMe-2" vertex="1">
          <mxGeometry x="250" width="150" height="40" as="geometry">
            <mxRectangle width="150" height="40" as="alternateBounds" />
          </mxGeometry>
        </mxCell>
        <mxCell id="vFC06uPmckTZ2XTKAsMe-6" value="product_num" style="shape=partialRectangle;html=1;whiteSpace=wrap;connectable=0;strokeColor=#0F8B8D;overflow=hidden;fillColor=none;top=0;left=0;bottom=0;right=0;pointerEvents=1;hachureGap=4;fontFamily=Architects Daughter;fontSource=https%3A%2F%2Ffonts.googleapis.com%2Fcss%3Ffamily%3DArchitects%2BDaughter;fontSize=20;labelBackgroundColor=none;fontColor=#143642;align=left;rounded=1;sketch=1;curveFitting=1;jiggle=2;" parent="vFC06uPmckTZ2XTKAsMe-2" vertex="1">
          <mxGeometry x="400" width="130" height="40" as="geometry">
            <mxRectangle width="130" height="40" as="alternateBounds" />
          </mxGeometry>
        </mxCell>
        <mxCell id="vFC06uPmckTZ2XTKAsMe-7" value="product_dis" style="shape=partialRectangle;html=1;whiteSpace=wrap;connectable=0;strokeColor=#0F8B8D;overflow=hidden;fillColor=none;top=0;left=0;bottom=0;right=0;pointerEvents=1;hachureGap=4;fontFamily=Architects Daughter;fontSource=https%3A%2F%2Ffonts.googleapis.com%2Fcss%3Ffamily%3DArchitects%2BDaughter;fontSize=20;labelBackgroundColor=none;fontColor=#143642;align=left;rounded=1;sketch=1;curveFitting=1;jiggle=2;" parent="vFC06uPmckTZ2XTKAsMe-2" vertex="1">
          <mxGeometry x="530" width="141" height="40" as="geometry">
            <mxRectangle width="141" height="40" as="alternateBounds" />
          </mxGeometry>
        </mxCell>
        <mxCell id="5U-Fbweph79UyeO-Mcib-1" value="Customer " style="shape=table;startSize=30;container=1;collapsible=0;childLayout=tableLayout;hachureGap=4;fontFamily=Architects Daughter;fontSource=https%3A%2F%2Ffonts.googleapis.com%2Fcss%3Ffamily%3DArchitects%2BDaughter;fontSize=20;align=left;labelBackgroundColor=none;fillColor=#FAE5C7;strokeColor=#0F8B8D;fontColor=#143642;rounded=1;fontStyle=1;sketch=1;curveFitting=1;jiggle=2;" parent="1" vertex="1">
          <mxGeometry x="-40" y="538" width="630" height="70" as="geometry" />
        </mxCell>
        <mxCell id="5U-Fbweph79UyeO-Mcib-2" value="" style="shape=tableRow;horizontal=0;startSize=0;swimlaneHead=0;swimlaneBody=0;strokeColor=#0F8B8D;top=0;left=0;bottom=0;right=0;collapsible=0;dropTarget=0;fillColor=none;points=[[0,0.5],[1,0.5]];portConstraint=eastwest;hachureGap=4;fontFamily=Architects Daughter;fontSource=https%3A%2F%2Ffonts.googleapis.com%2Fcss%3Ffamily%3DArchitects%2BDaughter;fontSize=20;labelBackgroundColor=none;fontColor=#143642;rounded=1;sketch=1;curveFitting=1;jiggle=2;" parent="5U-Fbweph79UyeO-Mcib-1" vertex="1">
          <mxGeometry y="30" width="630" height="40" as="geometry" />
        </mxCell>
        <mxCell id="5U-Fbweph79UyeO-Mcib-3" value="&lt;u&gt;customer_id&amp;nbsp;&lt;/u&gt;" style="shape=partialRectangle;html=1;whiteSpace=wrap;connectable=0;strokeColor=#0F8B8D;overflow=hidden;fillColor=none;top=0;left=0;bottom=0;right=0;pointerEvents=1;hachureGap=4;fontFamily=Architects Daughter;fontSource=https%3A%2F%2Ffonts.googleapis.com%2Fcss%3Ffamily%3DArchitects%2BDaughter;fontSize=20;labelBackgroundColor=none;fontColor=#143642;align=left;rounded=1;sketch=1;curveFitting=1;jiggle=2;" parent="5U-Fbweph79UyeO-Mcib-2" vertex="1">
          <mxGeometry width="144" height="40" as="geometry">
            <mxRectangle width="144" height="40" as="alternateBounds" />
          </mxGeometry>
        </mxCell>
        <mxCell id="5U-Fbweph79UyeO-Mcib-4" value="customer_number" style="shape=partialRectangle;html=1;whiteSpace=wrap;connectable=0;strokeColor=#0F8B8D;overflow=hidden;fillColor=none;top=0;left=0;bottom=0;right=0;pointerEvents=1;hachureGap=4;fontFamily=Architects Daughter;fontSource=https%3A%2F%2Ffonts.googleapis.com%2Fcss%3Ffamily%3DArchitects%2BDaughter;fontSize=20;labelBackgroundColor=none;fontColor=#143642;align=left;rounded=1;sketch=1;curveFitting=1;jiggle=2;" parent="5U-Fbweph79UyeO-Mcib-2" vertex="1">
          <mxGeometry x="144" width="195" height="40" as="geometry">
            <mxRectangle width="195" height="40" as="alternateBounds" />
          </mxGeometry>
        </mxCell>
        <mxCell id="5U-Fbweph79UyeO-Mcib-5" value="customer_name" style="shape=partialRectangle;html=1;whiteSpace=wrap;connectable=0;strokeColor=#0F8B8D;overflow=hidden;fillColor=none;top=0;left=0;bottom=0;right=0;pointerEvents=1;hachureGap=4;fontFamily=Architects Daughter;fontSource=https%3A%2F%2Ffonts.googleapis.com%2Fcss%3Ffamily%3DArchitects%2BDaughter;fontSize=20;labelBackgroundColor=none;fontColor=#143642;align=left;rounded=1;sketch=1;curveFitting=1;jiggle=2;" parent="5U-Fbweph79UyeO-Mcib-2" vertex="1">
          <mxGeometry x="339" width="165" height="40" as="geometry">
            <mxRectangle width="165" height="40" as="alternateBounds" />
          </mxGeometry>
        </mxCell>
        <mxCell id="5U-Fbweph79UyeO-Mcib-6" value="user_e-mail" style="shape=partialRectangle;html=1;whiteSpace=wrap;connectable=0;strokeColor=#0F8B8D;overflow=hidden;fillColor=none;top=0;left=0;bottom=0;right=0;pointerEvents=1;hachureGap=4;fontFamily=Architects Daughter;fontSource=https%3A%2F%2Ffonts.googleapis.com%2Fcss%3Ffamily%3DArchitects%2BDaughter;fontSize=20;labelBackgroundColor=none;fontColor=#143642;align=left;rounded=1;sketch=1;curveFitting=1;jiggle=2;" parent="5U-Fbweph79UyeO-Mcib-2" vertex="1">
          <mxGeometry x="504" width="126" height="40" as="geometry">
            <mxRectangle width="126" height="40" as="alternateBounds" />
          </mxGeometry>
        </mxCell>
        <mxCell id="tutO2zT8HS6IOOHL62qi-1" value="room" style="shape=table;startSize=30;container=1;collapsible=0;childLayout=tableLayout;hachureGap=4;fontFamily=Architects Daughter;fontSource=https%3A%2F%2Ffonts.googleapis.com%2Fcss%3Ffamily%3DArchitects%2BDaughter;fontSize=20;align=left;labelBackgroundColor=none;fillColor=#FAE5C7;strokeColor=#0F8B8D;fontColor=#143642;rounded=1;fontStyle=1;sketch=1;curveFitting=1;jiggle=2;" parent="1" vertex="1">
          <mxGeometry x="-40" y="698" width="630" height="70" as="geometry" />
        </mxCell>
        <mxCell id="tutO2zT8HS6IOOHL62qi-2" value="" style="shape=tableRow;horizontal=0;startSize=0;swimlaneHead=0;swimlaneBody=0;strokeColor=#0F8B8D;top=0;left=0;bottom=0;right=0;collapsible=0;dropTarget=0;fillColor=none;points=[[0,0.5],[1,0.5]];portConstraint=eastwest;hachureGap=4;fontFamily=Architects Daughter;fontSource=https%3A%2F%2Ffonts.googleapis.com%2Fcss%3Ffamily%3DArchitects%2BDaughter;fontSize=20;labelBackgroundColor=none;fontColor=#143642;rounded=1;sketch=1;curveFitting=1;jiggle=2;" parent="tutO2zT8HS6IOOHL62qi-1" vertex="1">
          <mxGeometry y="30" width="630" height="40" as="geometry" />
        </mxCell>
        <mxCell id="tutO2zT8HS6IOOHL62qi-3" value="&lt;u&gt;room_id&amp;nbsp;&lt;/u&gt;" style="shape=partialRectangle;html=1;whiteSpace=wrap;connectable=0;strokeColor=#0F8B8D;overflow=hidden;fillColor=none;top=0;left=0;bottom=0;right=0;pointerEvents=1;hachureGap=4;fontFamily=Architects Daughter;fontSource=https%3A%2F%2Ffonts.googleapis.com%2Fcss%3Ffamily%3DArchitects%2BDaughter;fontSize=20;labelBackgroundColor=none;fontColor=#143642;align=left;rounded=1;sketch=1;curveFitting=1;jiggle=2;" parent="tutO2zT8HS6IOOHL62qi-2" vertex="1">
          <mxGeometry width="144" height="40" as="geometry">
            <mxRectangle width="144" height="40" as="alternateBounds" />
          </mxGeometry>
        </mxCell>
        <mxCell id="tutO2zT8HS6IOOHL62qi-4" value="room_number" style="shape=partialRectangle;html=1;whiteSpace=wrap;connectable=0;strokeColor=#0F8B8D;overflow=hidden;fillColor=none;top=0;left=0;bottom=0;right=0;pointerEvents=1;hachureGap=4;fontFamily=Architects Daughter;fontSource=https%3A%2F%2Ffonts.googleapis.com%2Fcss%3Ffamily%3DArchitects%2BDaughter;fontSize=20;labelBackgroundColor=none;fontColor=#143642;align=left;rounded=1;sketch=1;curveFitting=1;jiggle=2;" parent="tutO2zT8HS6IOOHL62qi-2" vertex="1">
          <mxGeometry x="144" width="195" height="40" as="geometry">
            <mxRectangle width="195" height="40" as="alternateBounds" />
          </mxGeometry>
        </mxCell>
        <mxCell id="tutO2zT8HS6IOOHL62qi-5" value="room_type" style="shape=partialRectangle;html=1;whiteSpace=wrap;connectable=0;strokeColor=#0F8B8D;overflow=hidden;fillColor=none;top=0;left=0;bottom=0;right=0;pointerEvents=1;hachureGap=4;fontFamily=Architects Daughter;fontSource=https%3A%2F%2Ffonts.googleapis.com%2Fcss%3Ffamily%3DArchitects%2BDaughter;fontSize=20;labelBackgroundColor=none;fontColor=#143642;align=left;rounded=1;sketch=1;curveFitting=1;jiggle=2;" parent="tutO2zT8HS6IOOHL62qi-2" vertex="1">
          <mxGeometry x="339" width="131" height="40" as="geometry">
            <mxRectangle width="131" height="40" as="alternateBounds" />
          </mxGeometry>
        </mxCell>
        <mxCell id="tutO2zT8HS6IOOHL62qi-6" value="hour_cost" style="shape=partialRectangle;html=1;whiteSpace=wrap;connectable=0;strokeColor=#0F8B8D;overflow=hidden;fillColor=none;top=0;left=0;bottom=0;right=0;pointerEvents=1;hachureGap=4;fontFamily=Architects Daughter;fontSource=https%3A%2F%2Ffonts.googleapis.com%2Fcss%3Ffamily%3DArchitects%2BDaughter;fontSize=20;labelBackgroundColor=none;fontColor=#143642;align=left;rounded=1;sketch=1;curveFitting=1;jiggle=2;" parent="tutO2zT8HS6IOOHL62qi-2" vertex="1">
          <mxGeometry x="470" width="160" height="40" as="geometry">
            <mxRectangle width="160" height="40" as="alternateBounds" />
          </mxGeometry>
        </mxCell>
        <mxCell id="ssM94ziBCvkDO72ZLjY--2" value="" style="endArrow=none;html=1;rounded=1;sketch=1;hachureGap=4;jiggle=2;curveFitting=1;fontFamily=Architects Daughter;fontSource=https%3A%2F%2Ffonts.googleapis.com%2Fcss%3Ffamily%3DArchitects%2BDaughter;fontSize=16;exitX=0.063;exitY=1;exitDx=0;exitDy=0;exitPerimeter=0;edgeStyle=orthogonalEdgeStyle;labelBackgroundColor=none;strokeColor=#A8201A;fontColor=default;startArrow=classic;startFill=1;" parent="1" source="RWYREJHFsw9ylqag1IIU-19" edge="1">
          <mxGeometry width="50" height="50" relative="1" as="geometry">
            <mxPoint x="420" y="769.76" as="sourcePoint" />
            <mxPoint x="760" y="390" as="targetPoint" />
          </mxGeometry>
        </mxCell>
        <mxCell id="ssM94ziBCvkDO72ZLjY--3" value="" style="endArrow=none;html=1;rounded=0;sketch=1;hachureGap=4;jiggle=2;curveFitting=1;strokeColor=#A8201A;fontFamily=Architects Daughter;fontSource=https%3A%2F%2Ffonts.googleapis.com%2Fcss%3Ffamily%3DArchitects%2BDaughter;fontSize=16;fontColor=#143642;fillColor=#FAE5C7;entryX=0.899;entryY=1.029;entryDx=0;entryDy=0;entryPerimeter=0;edgeStyle=orthogonalEdgeStyle;startArrow=classic;startFill=1;" parent="1" source="5U-Fbweph79UyeO-Mcib-2" target="YpaAvpMWEU2DPBWhLSGL-2" edge="1">
          <mxGeometry width="50" height="50" relative="1" as="geometry">
            <mxPoint x="410" y="530" as="sourcePoint" />
            <mxPoint x="460" y="480" as="targetPoint" />
            <Array as="points">
              <mxPoint x="-90" y="680" />
              <mxPoint x="-90" y="470" />
              <mxPoint x="850" y="470" />
            </Array>
          </mxGeometry>
        </mxCell>
        <mxCell id="Z0C8JNwTgx4TpeXMT9hU-1" value="room_detils" style="shape=table;startSize=30;container=1;collapsible=0;childLayout=tableLayout;hachureGap=4;fontFamily=Architects Daughter;fontSource=https%3A%2F%2Ffonts.googleapis.com%2Fcss%3Ffamily%3DArchitects%2BDaughter;fontSize=20;align=left;labelBackgroundColor=none;fillColor=#FAE5C7;strokeColor=#0F8B8D;fontColor=#143642;rounded=1;fontStyle=1;sketch=1;curveFitting=1;jiggle=2;" parent="1" vertex="1">
          <mxGeometry x="-32" y="838" width="339" height="70" as="geometry" />
        </mxCell>
        <mxCell id="Z0C8JNwTgx4TpeXMT9hU-2" value="" style="shape=tableRow;horizontal=0;startSize=0;swimlaneHead=0;swimlaneBody=0;strokeColor=#0F8B8D;top=0;left=0;bottom=0;right=0;collapsible=0;dropTarget=0;fillColor=none;points=[[0,0.5],[1,0.5]];portConstraint=eastwest;hachureGap=4;fontFamily=Architects Daughter;fontSource=https%3A%2F%2Ffonts.googleapis.com%2Fcss%3Ffamily%3DArchitects%2BDaughter;fontSize=20;labelBackgroundColor=none;fontColor=#143642;rounded=1;sketch=1;curveFitting=1;jiggle=2;" parent="Z0C8JNwTgx4TpeXMT9hU-1" vertex="1">
          <mxGeometry y="30" width="339" height="40" as="geometry" />
        </mxCell>
        <mxCell id="Z0C8JNwTgx4TpeXMT9hU-3" value="&lt;u&gt;room_id&amp;nbsp;&lt;/u&gt;" style="shape=partialRectangle;html=1;whiteSpace=wrap;connectable=0;strokeColor=#0F8B8D;overflow=hidden;fillColor=none;top=0;left=0;bottom=0;right=0;pointerEvents=1;hachureGap=4;fontFamily=Architects Daughter;fontSource=https%3A%2F%2Ffonts.googleapis.com%2Fcss%3Ffamily%3DArchitects%2BDaughter;fontSize=20;labelBackgroundColor=none;fontColor=#143642;align=left;rounded=1;sketch=1;curveFitting=1;jiggle=2;" parent="Z0C8JNwTgx4TpeXMT9hU-2" vertex="1">
          <mxGeometry width="144" height="40" as="geometry">
            <mxRectangle width="144" height="40" as="alternateBounds" />
          </mxGeometry>
        </mxCell>
        <mxCell id="Z0C8JNwTgx4TpeXMT9hU-4" value="dat_id" style="shape=partialRectangle;html=1;whiteSpace=wrap;connectable=0;strokeColor=#0F8B8D;overflow=hidden;fillColor=none;top=0;left=0;bottom=0;right=0;pointerEvents=1;hachureGap=4;fontFamily=Architects Daughter;fontSource=https%3A%2F%2Ffonts.googleapis.com%2Fcss%3Ffamily%3DArchitects%2BDaughter;fontSize=20;labelBackgroundColor=none;fontColor=#143642;align=left;rounded=1;sketch=1;curveFitting=1;jiggle=2;" parent="Z0C8JNwTgx4TpeXMT9hU-2" vertex="1">
          <mxGeometry x="144" width="195" height="40" as="geometry">
            <mxRectangle width="195" height="40" as="alternateBounds" />
          </mxGeometry>
        </mxCell>
        <mxCell id="Z0C8JNwTgx4TpeXMT9hU-8" value="" style="endArrow=none;html=1;rounded=0;sketch=1;hachureGap=4;jiggle=2;curveFitting=1;strokeColor=#A8201A;fontFamily=Architects Daughter;fontSource=https%3A%2F%2Ffonts.googleapis.com%2Fcss%3Ffamily%3DArchitects%2BDaughter;fontSize=16;fontColor=#143642;fillColor=#FAE5C7;exitX=0;exitY=0.5;exitDx=0;exitDy=0;edgeStyle=orthogonalEdgeStyle;startArrow=classic;startFill=1;entryX=0.646;entryY=1.025;entryDx=0;entryDy=0;entryPerimeter=0;" parent="1" source="YpaAvpMWEU2DPBWhLSGL-2" edge="1" target="Z0C8JNwTgx4TpeXMT9hU-2">
          <mxGeometry width="50" height="50" relative="1" as="geometry">
            <mxPoint x="410" y="770" as="sourcePoint" />
            <mxPoint x="185" y="980" as="targetPoint" />
            <Array as="points">
              <mxPoint x="-170" y="430" />
              <mxPoint x="-170" y="960" />
              <mxPoint x="185" y="960" />
              <mxPoint x="185" y="909" />
            </Array>
          </mxGeometry>
        </mxCell>
        <mxCell id="p_LmMV0lpGPtG287u7hK-9" style="edgeStyle=orthogonalEdgeStyle;rounded=0;sketch=1;hachureGap=4;jiggle=2;curveFitting=1;orthogonalLoop=1;jettySize=auto;html=1;exitX=0.75;exitY=1;exitDx=0;exitDy=0;entryX=0.006;entryY=0.253;entryDx=0;entryDy=0;entryPerimeter=0;strokeColor=#A8201A;fontFamily=Architects Daughter;fontSource=https%3A%2F%2Ffonts.googleapis.com%2Fcss%3Ffamily%3DArchitects%2BDaughter;fontSize=16;fontColor=#143642;fillColor=#FAE5C7;" parent="1" source="p_LmMV0lpGPtG287u7hK-1" target="YpaAvpMWEU2DPBWhLSGL-2" edge="1">
          <mxGeometry relative="1" as="geometry">
            <Array as="points">
              <mxPoint x="148" y="100" />
              <mxPoint x="-120" y="100" />
              <mxPoint x="-120" y="420" />
            </Array>
          </mxGeometry>
        </mxCell>
        <mxCell id="p_LmMV0lpGPtG287u7hK-1" value="product_datils" style="shape=table;startSize=30;container=1;collapsible=0;childLayout=tableLayout;hachureGap=4;fontFamily=Architects Daughter;fontSource=https%3A%2F%2Ffonts.googleapis.com%2Fcss%3Ffamily%3DArchitects%2BDaughter;fontSize=20;align=left;labelBackgroundColor=none;fillColor=#FAE5C7;strokeColor=#0F8B8D;fontColor=#143642;rounded=1;fontStyle=1;sketch=1;curveFitting=1;jiggle=2;" parent="1" vertex="1">
          <mxGeometry x="-40" y="5" width="250" height="70" as="geometry" />
        </mxCell>
        <mxCell id="p_LmMV0lpGPtG287u7hK-2" value="" style="shape=tableRow;horizontal=0;startSize=0;swimlaneHead=0;swimlaneBody=0;strokeColor=#0F8B8D;top=0;left=0;bottom=0;right=0;collapsible=0;dropTarget=0;fillColor=none;points=[[0,0.5],[1,0.5]];portConstraint=eastwest;hachureGap=4;fontFamily=Architects Daughter;fontSource=https%3A%2F%2Ffonts.googleapis.com%2Fcss%3Ffamily%3DArchitects%2BDaughter;fontSize=20;labelBackgroundColor=none;fontColor=#143642;rounded=1;sketch=1;curveFitting=1;jiggle=2;" parent="p_LmMV0lpGPtG287u7hK-1" vertex="1">
          <mxGeometry y="30" width="250" height="40" as="geometry" />
        </mxCell>
        <mxCell id="p_LmMV0lpGPtG287u7hK-3" value="&lt;u style=&quot;border-color: var(--border-color); text-align: center;&quot;&gt;product_id&lt;/u&gt;" style="shape=partialRectangle;html=1;whiteSpace=wrap;connectable=0;strokeColor=#0F8B8D;overflow=hidden;fillColor=none;top=0;left=0;bottom=0;right=0;pointerEvents=1;hachureGap=4;fontFamily=Architects Daughter;fontSource=https%3A%2F%2Ffonts.googleapis.com%2Fcss%3Ffamily%3DArchitects%2BDaughter;fontSize=20;labelBackgroundColor=none;fontColor=#143642;align=left;rounded=1;sketch=1;curveFitting=1;jiggle=2;" parent="p_LmMV0lpGPtG287u7hK-2" vertex="1">
          <mxGeometry width="110" height="40" as="geometry">
            <mxRectangle width="110" height="40" as="alternateBounds" />
          </mxGeometry>
        </mxCell>
        <mxCell id="p_LmMV0lpGPtG287u7hK-4" value="dat_id" style="shape=partialRectangle;html=1;whiteSpace=wrap;connectable=0;strokeColor=#0F8B8D;overflow=hidden;fillColor=none;top=0;left=0;bottom=0;right=0;pointerEvents=1;hachureGap=4;fontFamily=Architects Daughter;fontSource=https%3A%2F%2Ffonts.googleapis.com%2Fcss%3Ffamily%3DArchitects%2BDaughter;fontSize=20;labelBackgroundColor=none;fontColor=#143642;align=left;rounded=1;sketch=1;curveFitting=1;jiggle=2;" parent="p_LmMV0lpGPtG287u7hK-2" vertex="1">
          <mxGeometry x="110" width="140" height="40" as="geometry">
            <mxRectangle width="140" height="40" as="alternateBounds" />
          </mxGeometry>
        </mxCell>
        <mxCell id="p_LmMV0lpGPtG287u7hK-8" value="" style="endArrow=classic;html=1;rounded=0;sketch=1;hachureGap=4;jiggle=2;curveFitting=1;strokeColor=#A8201A;fontFamily=Architects Daughter;fontSource=https%3A%2F%2Ffonts.googleapis.com%2Fcss%3Ffamily%3DArchitects%2BDaughter;fontSize=16;fontColor=#143642;fillColor=#FAE5C7;exitX=0;exitY=0.5;exitDx=0;exitDy=0;edgeStyle=orthogonalEdgeStyle;startArrow=none;startFill=0;endFill=1;" parent="1" source="p_LmMV0lpGPtG287u7hK-1" target="vFC06uPmckTZ2XTKAsMe-2" edge="1">
          <mxGeometry width="50" height="50" relative="1" as="geometry">
            <mxPoint x="410" y="180" as="sourcePoint" />
            <mxPoint x="20" y="100" as="targetPoint" />
          </mxGeometry>
        </mxCell>
        <mxCell id="p_LmMV0lpGPtG287u7hK-10" style="edgeStyle=orthogonalEdgeStyle;rounded=0;sketch=1;hachureGap=4;jiggle=2;curveFitting=1;orthogonalLoop=1;jettySize=auto;html=1;exitX=0;exitY=0.5;exitDx=0;exitDy=0;entryX=0;entryY=0.5;entryDx=0;entryDy=0;strokeColor=#A8201A;fontFamily=Architects Daughter;fontSource=https%3A%2F%2Ffonts.googleapis.com%2Fcss%3Ffamily%3DArchitects%2BDaughter;fontSize=16;fontColor=#143642;fillColor=#FAE5C7;" parent="1" source="Z0C8JNwTgx4TpeXMT9hU-2" target="tutO2zT8HS6IOOHL62qi-2" edge="1">
          <mxGeometry relative="1" as="geometry" />
        </mxCell>
        <mxCell id="PW5aQCXhXqIKXpTCpgYm-1" value="payment" style="shape=table;startSize=30;container=1;collapsible=0;childLayout=tableLayout;hachureGap=4;fontFamily=Architects Daughter;fontSource=https%3A%2F%2Ffonts.googleapis.com%2Fcss%3Ffamily%3DArchitects%2BDaughter;fontSize=20;align=left;labelBackgroundColor=none;fillColor=#FAE5C7;strokeColor=#0F8B8D;fontColor=#143642;rounded=1;fontStyle=1;sketch=1;curveFitting=1;jiggle=2;" parent="1" vertex="1">
          <mxGeometry x="-32" y="150" width="784" height="70" as="geometry" />
        </mxCell>
        <mxCell id="PW5aQCXhXqIKXpTCpgYm-2" value="" style="shape=tableRow;horizontal=0;startSize=0;swimlaneHead=0;swimlaneBody=0;strokeColor=#0F8B8D;top=0;left=0;bottom=0;right=0;collapsible=0;dropTarget=0;fillColor=none;points=[[0,0.5],[1,0.5]];portConstraint=eastwest;hachureGap=4;fontFamily=Architects Daughter;fontSource=https%3A%2F%2Ffonts.googleapis.com%2Fcss%3Ffamily%3DArchitects%2BDaughter;fontSize=20;labelBackgroundColor=none;fontColor=#143642;rounded=1;sketch=1;curveFitting=1;jiggle=2;" parent="PW5aQCXhXqIKXpTCpgYm-1" vertex="1">
          <mxGeometry y="30" width="784" height="40" as="geometry" />
        </mxCell>
        <mxCell id="gnD5bGQcrN2otqEJkqFU-31" value="user_id" style="shape=partialRectangle;html=1;whiteSpace=wrap;connectable=0;strokeColor=#0F8B8D;overflow=hidden;fillColor=none;top=0;left=0;bottom=0;right=0;pointerEvents=1;hachureGap=4;fontFamily=Architects Daughter;fontSource=https%3A%2F%2Ffonts.googleapis.com%2Fcss%3Ffamily%3DArchitects%2BDaughter;fontSize=20;labelBackgroundColor=none;fontColor=#143642;align=left;rounded=1;sketch=1;curveFitting=1;jiggle=2;" parent="PW5aQCXhXqIKXpTCpgYm-2" vertex="1">
          <mxGeometry width="122" height="40" as="geometry">
            <mxRectangle width="122" height="40" as="alternateBounds" />
          </mxGeometry>
        </mxCell>
        <mxCell id="PW5aQCXhXqIKXpTCpgYm-3" value="&lt;u style=&quot;border-color: var(--border-color); text-align: center;&quot;&gt;payment_id&lt;/u&gt;" style="shape=partialRectangle;html=1;whiteSpace=wrap;connectable=0;strokeColor=#0F8B8D;overflow=hidden;fillColor=none;top=0;left=0;bottom=0;right=0;pointerEvents=1;hachureGap=4;fontFamily=Architects Daughter;fontSource=https%3A%2F%2Ffonts.googleapis.com%2Fcss%3Ffamily%3DArchitects%2BDaughter;fontSize=20;labelBackgroundColor=none;fontColor=#143642;align=left;rounded=1;sketch=1;curveFitting=1;jiggle=2;" parent="PW5aQCXhXqIKXpTCpgYm-2" vertex="1">
          <mxGeometry x="122" width="122" height="40" as="geometry">
            <mxRectangle width="122" height="40" as="alternateBounds" />
          </mxGeometry>
        </mxCell>
        <mxCell id="PW5aQCXhXqIKXpTCpgYm-4" value="Payment_purpose" style="shape=partialRectangle;html=1;whiteSpace=wrap;connectable=0;strokeColor=#0F8B8D;overflow=hidden;fillColor=none;top=0;left=0;bottom=0;right=0;pointerEvents=1;hachureGap=4;fontFamily=Architects Daughter;fontSource=https%3A%2F%2Ffonts.googleapis.com%2Fcss%3Ffamily%3DArchitects%2BDaughter;fontSize=20;labelBackgroundColor=none;fontColor=#143642;align=left;rounded=1;sketch=1;curveFitting=1;jiggle=2;" parent="PW5aQCXhXqIKXpTCpgYm-2" vertex="1">
          <mxGeometry x="244" width="180" height="40" as="geometry">
            <mxRectangle width="180" height="40" as="alternateBounds" />
          </mxGeometry>
        </mxCell>
        <mxCell id="CqDzSd9ue4rJXIL8PZGD-1" value="payment_cost" style="shape=partialRectangle;html=1;whiteSpace=wrap;connectable=0;strokeColor=#0F8B8D;overflow=hidden;fillColor=none;top=0;left=0;bottom=0;right=0;pointerEvents=1;hachureGap=4;fontFamily=Architects Daughter;fontSource=https%3A%2F%2Ffonts.googleapis.com%2Fcss%3Ffamily%3DArchitects%2BDaughter;fontSize=20;labelBackgroundColor=none;fontColor=#143642;align=left;rounded=1;sketch=1;curveFitting=1;jiggle=2;" parent="PW5aQCXhXqIKXpTCpgYm-2" vertex="1">
          <mxGeometry x="424" width="150" height="40" as="geometry">
            <mxRectangle width="150" height="40" as="alternateBounds" />
          </mxGeometry>
        </mxCell>
        <mxCell id="3i5zfBBd1pXq-6Fwr9J8-1" value="payement_date" style="shape=partialRectangle;html=1;whiteSpace=wrap;connectable=0;strokeColor=#0F8B8D;overflow=hidden;fillColor=none;top=0;left=0;bottom=0;right=0;pointerEvents=1;hachureGap=4;fontFamily=Architects Daughter;fontSource=https%3A%2F%2Ffonts.googleapis.com%2Fcss%3Ffamily%3DArchitects%2BDaughter;fontSize=20;labelBackgroundColor=none;fontColor=#143642;align=left;rounded=1;sketch=1;curveFitting=1;jiggle=2;" parent="PW5aQCXhXqIKXpTCpgYm-2" vertex="1">
          <mxGeometry x="574" width="210" height="40" as="geometry">
            <mxRectangle width="210" height="40" as="alternateBounds" />
          </mxGeometry>
        </mxCell>
        <mxCell id="gnD5bGQcrN2otqEJkqFU-32" style="edgeStyle=orthogonalEdgeStyle;rounded=0;sketch=1;hachureGap=4;jiggle=2;curveFitting=1;orthogonalLoop=1;jettySize=auto;html=1;exitX=0;exitY=0.5;exitDx=0;exitDy=0;entryX=0;entryY=0.5;entryDx=0;entryDy=0;strokeColor=#A8201A;fontFamily=Architects Daughter;fontSource=https%3A%2F%2Ffonts.googleapis.com%2Fcss%3Ffamily%3DArchitects%2BDaughter;fontSize=16;fontColor=#143642;fillColor=#FAE5C7;" parent="1" source="PW5aQCXhXqIKXpTCpgYm-2" target="RWYREJHFsw9ylqag1IIU-19" edge="1">
          <mxGeometry relative="1" as="geometry">
            <Array as="points">
              <mxPoint x="-90" y="200" />
              <mxPoint x="-90" y="297" />
            </Array>
          </mxGeometry>
        </mxCell>
      </root>
    </mxGraphModel>
  </diagram>
</mxfile>
